0
SECTION
2
HEADER
9
$ANGDIR
70
1
9
$AUNITS
70
0
9
$PROJECTNAME
1
ROB V1.1
9
$TDCREATE
40
2460944.93791634
9
$INSUNITS
70
4
0
ENDSEC
0
SECTION
2
ENTITIES
0
POLYLINE
66
1
8
outline
10
0.0
20
0.0
30
0.0
70
1
0
VERTEX
8
0
10
0
20
6.3500000000000005
30
0
0
VERTEX
8
0
10
100
20
6.3500000000000005
30
0
0
VERTEX
8
0
10
100
20
77.46000000000001
30
0
0
VERTEX
8
0
10
0
20
77.46000000000001
30
0
0
VERTEX
8
0
10
0
20
6.3500000000000005
30
0
0
SEQEND
0
POLYLINE
66
1
8
holes
10
0.0
20
0.0
30
0.0
70
1
0
VERTEX
8
0
10
16.8275
20
64.71803125000001
30
0
0
VERTEX
8
0
10
16.820703125
20
64.614315625
30
0
0
VERTEX
8
0
10
16.807134375
20
64.51126562500001
30
0
0
VERTEX
8
0
10
16.786859375000002
20
64.409321875
30
0
0
VERTEX
8
0
10
16.759956250000002
20
64.308925
30
0
0
VERTEX
8
0
10
16.726546875
20
64.210503125
30
0
0
VERTEX
8
0
10
16.686771875
20
64.114478125
30
0
0
VERTEX
8
0
10
16.640800000000002
20
64.02125625000001
30
0
0
VERTEX
8
0
10
16.588831250000002
20
63.93124375
30
0
0
VERTEX
8
0
10
16.531084375000002
20
63.844821875
30
0
0
VERTEX
8
0
10
16.4678125
20
63.7623625
30
0
0
VERTEX
8
0
10
16.39928125
20
63.684215625
30
0
0
VERTEX
8
0
10
16.325784375
20
63.610718750000004
30
0
0
VERTEX
8
0
10
16.2476375
20
63.542187500000004
30
0
0
VERTEX
8
0
10
16.165178125
20
63.478915625000006
30
0
0
VERTEX
8
0
10
16.07875625
20
63.42116875
30
0
0
VERTEX
8
0
10
15.988743750000001
20
63.369200000000006
30
0
0
VERTEX
8
0
10
15.895521875
20
63.323228125
30
0
0
VERTEX
8
0
10
15.799496875
20
63.283453125
30
0
0
VERTEX
8
0
10
15.701075000000001
20
63.25004375
30
0
0
VERTEX
8
0
10
15.600678125
20
63.223140625000006
30
0
0
VERTEX
8
0
10
15.498734375000002
20
63.202865625
30
0
0
VERTEX
8
0
10
15.395684375
20
63.189296875000004
30
0
0
VERTEX
8
0
10
15.29196875
20
63.182500000000005
30
0
0
VERTEX
8
0
10
15.18803125
20
63.182500000000005
30
0
0
VERTEX
8
0
10
15.084315625
20
63.189296875000004
30
0
0
VERTEX
8
0
10
14.981265625
20
63.202865625
30
0
0
VERTEX
8
0
10
14.879321875
20
63.223140625000006
30
0
0
VERTEX
8
0
10
14.778925000000001
20
63.25004375
30
0
0
VERTEX
8
0
10
14.680503125000001
20
63.283453125
30
0
0
VERTEX
8
0
10
14.584478125
20
63.323228125
30
0
0
VERTEX
8
0
10
14.491256250000001
20
63.369200000000006
30
0
0
VERTEX
8
0
10
14.40124375
20
63.42116875
30
0
0
VERTEX
8
0
10
14.314821875
20
63.478915625000006
30
0
0
VERTEX
8
0
10
14.2323625
20
63.542187500000004
30
0
0
VERTEX
8
0
10
14.154215625
20
63.610718750000004
30
0
0
VERTEX
8
0
10
14.08071875
20
63.684215625
30
0
0
VERTEX
8
0
10
14.012187500000001
20
63.7623625
30
0
0
VERTEX
8
0
10
13.948915625000001
20
63.844821875
30
0
0
VERTEX
8
0
10
13.89116875
20
63.93124375
30
0
0
VERTEX
8
0
10
13.8392
20
64.02125625000001
30
0
0
VERTEX
8
0
10
13.793228125
20
64.114478125
30
0
0
VERTEX
8
0
10
13.753453125
20
64.210503125
30
0
0
VERTEX
8
0
10
13.72004375
20
64.308925
30
0
0
VERTEX
8
0
10
13.693140625
20
64.409321875
30
0
0
VERTEX
8
0
10
13.672865625
20
64.51126562500001
30
0
0
VERTEX
8
0
10
13.659296875
20
64.614315625
30
0
0
VERTEX
8
0
10
13.6525
20
64.71803125000001
30
0
0
VERTEX
8
0
10
13.6525
20
64.82196875
30
0
0
VERTEX
8
0
10
13.659296875
20
64.925684375
30
0
0
VERTEX
8
0
10
13.672865625
20
65.028734375
30
0
0
VERTEX
8
0
10
13.693140625
20
65.130678125
30
0
0
VERTEX
8
0
10
13.72004375
20
65.231075
30
0
0
VERTEX
8
0
10
13.753453125
20
65.329496875
30
0
0
VERTEX
8
0
10
13.793228125
20
65.425521875
30
0
0
VERTEX
8
0
10
13.8392
20
65.51874375
30
0
0
VERTEX
8
0
10
13.89116875
20
65.60875625
30
0
0
VERTEX
8
0
10
13.948915625000001
20
65.695178125
30
0
0
VERTEX
8
0
10
14.012187500000001
20
65.7776375
30
0
0
VERTEX
8
0
10
14.08071875
20
65.855784375
30
0
0
VERTEX
8
0
10
14.154215625
20
65.92928125
30
0
0
VERTEX
8
0
10
14.2323625
20
65.99781250000001
30
0
0
VERTEX
8
0
10
14.314821875
20
66.06108437500001
30
0
0
VERTEX
8
0
10
14.40124375
20
66.11883125
30
0
0
VERTEX
8
0
10
14.491256250000001
20
66.1708
30
0
0
VERTEX
8
0
10
14.584478125
20
66.216771875
30
0
0
VERTEX
8
0
10
14.680503125000001
20
66.256546875
30
0
0
VERTEX
8
0
10
14.778925000000001
20
66.28995625
30
0
0
VERTEX
8
0
10
14.879321875
20
66.316859375
30
0
0
VERTEX
8
0
10
14.981265625
20
66.337134375
30
0
0
VERTEX
8
0
10
15.084315625
20
66.35070312500001
30
0
0
VERTEX
8
0
10
15.18803125
20
66.3575
30
0
0
VERTEX
8
0
10
15.29196875
20
66.3575
30
0
0
VERTEX
8
0
10
15.395684375
20
66.35070312500001
30
0
0
VERTEX
8
0
10
15.498734375000002
20
66.337134375
30
0
0
VERTEX
8
0
10
15.600678125
20
66.316859375
30
0
0
VERTEX
8
0
10
15.701075000000001
20
66.28995625
30
0
0
VERTEX
8
0
10
15.799496875
20
66.256546875
30
0
0
VERTEX
8
0
10
15.895521875
20
66.216771875
30
0
0
VERTEX
8
0
10
15.988743750000001
20
66.1708
30
0
0
VERTEX
8
0
10
16.07875625
20
66.11883125
30
0
0
VERTEX
8
0
10
16.165178125
20
66.06108437500001
30
0
0
VERTEX
8
0
10
16.2476375
20
65.99781250000001
30
0
0
VERTEX
8
0
10
16.325784375
20
65.92928125
30
0
0
VERTEX
8
0
10
16.39928125
20
65.855784375
30
0
0
VERTEX
8
0
10
16.4678125
20
65.7776375
30
0
0
VERTEX
8
0
10
16.531084375000002
20
65.695178125
30
0
0
VERTEX
8
0
10
16.588831250000002
20
65.60875625
30
0
0
VERTEX
8
0
10
16.640800000000002
20
65.51874375
30
0
0
VERTEX
8
0
10
16.686771875
20
65.425521875
30
0
0
VERTEX
8
0
10
16.726546875
20
65.329496875
30
0
0
VERTEX
8
0
10
16.759956250000002
20
65.231075
30
0
0
VERTEX
8
0
10
16.786859375000002
20
65.130678125
30
0
0
VERTEX
8
0
10
16.807134375
20
65.028734375
30
0
0
VERTEX
8
0
10
16.820703125
20
64.925684375
30
0
0
VERTEX
8
0
10
16.8275
20
64.82196875
30
0
0
VERTEX
8
0
10
16.8275
20
64.71803125000001
30
0
0
SEQEND
0
POLYLINE
66
1
8
holes
10
0.0
20
0.0
30
0.0
70
1
0
VERTEX
8
0
10
67.6275
20
49.47803125
30
0
0
VERTEX
8
0
10
67.620703125
20
49.374315625
30
0
0
VERTEX
8
0
10
67.607134375
20
49.271265625000005
30
0
0
VERTEX
8
0
10
67.586859375
20
49.169321875
30
0
0
VERTEX
8
0
10
67.55995625
20
49.068925
30
0
0
VERTEX
8
0
10
67.52654687500001
20
48.970503125
30
0
0
VERTEX
8
0
10
67.486771875
20
48.874478125
30
0
0
VERTEX
8
0
10
67.44080000000001
20
48.781256250000006
30
0
0
VERTEX
8
0
10
67.38883125000001
20
48.691243750000005
30
0
0
VERTEX
8
0
10
67.331084375
20
48.604821875
30
0
0
VERTEX
8
0
10
67.2678125
20
48.5223625
30
0
0
VERTEX
8
0
10
67.19928125
20
48.444215625000005
30
0
0
VERTEX
8
0
10
67.12578437500001
20
48.37071875
30
0
0
VERTEX
8
0
10
67.04763750000001
20
48.3021875
30
0
0
VERTEX
8
0
10
66.96517812500001
20
48.238915625000004
30
0
0
VERTEX
8
0
10
66.87875625000001
20
48.181168750000005
30
0
0
VERTEX
8
0
10
66.78874375000001
20
48.129200000000004
30
0
0
VERTEX
8
0
10
66.695521875
20
48.083228125000005
30
0
0
VERTEX
8
0
10
66.599496875
20
48.043453125
30
0
0
VERTEX
8
0
10
66.501075
20
48.01004375
30
0
0
VERTEX
8
0
10
66.400678125
20
47.983140625000004
30
0
0
VERTEX
8
0
10
66.29873437500001
20
47.962865625
30
0
0
VERTEX
8
0
10
66.195684375
20
47.949296875
30
0
0
VERTEX
8
0
10
66.09196875
20
47.9425
30
0
0
VERTEX
8
0
10
65.98803125
20
47.9425
30
0
0
VERTEX
8
0
10
65.884315625
20
47.949296875
30
0
0
VERTEX
8
0
10
65.781265625
20
47.962865625
30
0
0
VERTEX
8
0
10
65.679321875
20
47.983140625000004
30
0
0
VERTEX
8
0
10
65.578925
20
48.01004375
30
0
0
VERTEX
8
0
10
65.480503125
20
48.043453125
30
0
0
VERTEX
8
0
10
65.384478125
20
48.083228125000005
30
0
0
VERTEX
8
0
10
65.29125625
20
48.129200000000004
30
0
0
VERTEX
8
0
10
65.20124375
20
48.181168750000005
30
0
0
VERTEX
8
0
10
65.114821875
20
48.238915625000004
30
0
0
VERTEX
8
0
10
65.0323625
20
48.3021875
30
0
0
VERTEX
8
0
10
64.954215625
20
48.37071875
30
0
0
VERTEX
8
0
10
64.88071875
20
48.444215625000005
30
0
0
VERTEX
8
0
10
64.81218750000001
20
48.5223625
30
0
0
VERTEX
8
0
10
64.74891562500001
20
48.604821875
30
0
0
VERTEX
8
0
10
64.69116875
20
48.691243750000005
30
0
0
VERTEX
8
0
10
64.6392
20
48.781256250000006
30
0
0
VERTEX
8
0
10
64.593228125
20
48.874478125
30
0
0
VERTEX
8
0
10
64.553453125
20
48.970503125
30
0
0
VERTEX
8
0
10
64.52004375
20
49.068925
30
0
0
VERTEX
8
0
10
64.49314062500001
20
49.169321875
30
0
0
VERTEX
8
0
10
64.472865625
20
49.271265625000005
30
0
0
VERTEX
8
0
10
64.459296875
20
49.374315625
30
0
0
VERTEX
8
0
10
64.4525
20
49.47803125
30
0
0
VERTEX
8
0
10
64.4525
20
49.58196875
30
0
0
VERTEX
8
0
10
64.459296875
20
49.685684375
30
0
0
VERTEX
8
0
10
64.472865625
20
49.788734375000004
30
0
0
VERTEX
8
0
10
64.49314062500001
20
49.890678125
30
0
0
VERTEX
8
0
10
64.52004375
20
49.991075
30
0
0
VERTEX
8
0
10
64.553453125
20
50.089496875
30
0
0
VERTEX
8
0
10
64.593228125
20
50.185521875
30
0
0
VERTEX
8
0
10
64.6392
20
50.278743750000004
30
0
0
VERTEX
8
0
10
64.69116875
20
50.368756250000004
30
0
0
VERTEX
8
0
10
64.74891562500001
20
50.455178125
30
0
0
VERTEX
8
0
10
64.81218750000001
20
50.5376375
30
0
0
VERTEX
8
0
10
64.88071875
20
50.615784375000004
30
0
0
VERTEX
8
0
10
64.954215625
20
50.68928125
30
0
0
VERTEX
8
0
10
65.0323625
20
50.7578125
30
0
0
VERTEX
8
0
10
65.114821875
20
50.821084375000005
30
0
0
VERTEX
8
0
10
65.20124375
20
50.878831250000005
30
0
0
VERTEX
8
0
10
65.29125625
20
50.930800000000005
30
0
0
VERTEX
8
0
10
65.384478125
20
50.976771875000004
30
0
0
VERTEX
8
0
10
65.480503125
20
51.016546875
30
0
0
VERTEX
8
0
10
65.578925
20
51.04995625
30
0
0
VERTEX
8
0
10
65.679321875
20
51.076859375000005
30
0
0
VERTEX
8
0
10
65.781265625
20
51.097134375
30
0
0
VERTEX
8
0
10
65.884315625
20
51.110703125
30
0
0
VERTEX
8
0
10
65.98803125
20
51.1175
30
0
0
VERTEX
8
0
10
66.09196875
20
51.1175
30
0
0
VERTEX
8
0
10
66.195684375
20
51.110703125
30
0
0
VERTEX
8
0
10
66.29873437500001
20
51.097134375
30
0
0
VERTEX
8
0
10
66.400678125
20
51.076859375000005
30
0
0
VERTEX
8
0
10
66.501075
20
51.04995625
30
0
0
VERTEX
8
0
10
66.599496875
20
51.016546875
30
0
0
VERTEX
8
0
10
66.695521875
20
50.976771875000004
30
0
0
VERTEX
8
0
10
66.78874375000001
20
50.930800000000005
30
0
0
VERTEX
8
0
10
66.87875625000001
20
50.878831250000005
30
0
0
VERTEX
8
0
10
66.96517812500001
20
50.821084375000005
30
0
0
VERTEX
8
0
10
67.04763750000001
20
50.7578125
30
0
0
VERTEX
8
0
10
67.12578437500001
20
50.68928125
30
0
0
VERTEX
8
0
10
67.19928125
20
50.615784375000004
30
0
0
VERTEX
8
0
10
67.2678125
20
50.5376375
30
0
0
VERTEX
8
0
10
67.331084375
20
50.455178125
30
0
0
VERTEX
8
0
10
67.38883125000001
20
50.368756250000004
30
0
0
VERTEX
8
0
10
67.44080000000001
20
50.278743750000004
30
0
0
VERTEX
8
0
10
67.486771875
20
50.185521875
30
0
0
VERTEX
8
0
10
67.52654687500001
20
50.089496875
30
0
0
VERTEX
8
0
10
67.55995625
20
49.991075
30
0
0
VERTEX
8
0
10
67.586859375
20
49.890678125
30
0
0
VERTEX
8
0
10
67.607134375
20
49.788734375000004
30
0
0
VERTEX
8
0
10
67.620703125
20
49.685684375
30
0
0
VERTEX
8
0
10
67.6275
20
49.58196875
30
0
0
VERTEX
8
0
10
67.6275
20
49.47803125
30
0
0
SEQEND
0
POLYLINE
66
1
8
holes
10
0.0
20
0.0
30
0.0
70
1
0
VERTEX
8
0
10
67.6275
20
21.53803125
30
0
0
VERTEX
8
0
10
67.620703125
20
21.434315625
30
0
0
VERTEX
8
0
10
67.607134375
20
21.331265625
30
0
0
VERTEX
8
0
10
67.586859375
20
21.229321875
30
0
0
VERTEX
8
0
10
67.55995625
20
21.128925000000002
30
0
0
VERTEX
8
0
10
67.52654687500001
20
21.030503125000003
30
0
0
VERTEX
8
0
10
67.486771875
20
20.934478125000002
30
0
0
VERTEX
8
0
10
67.44080000000001
20
20.84125625
30
0
0
VERTEX
8
0
10
67.38883125000001
20
20.75124375
30
0
0
VERTEX
8
0
10
67.331084375
20
20.664821875
30
0
0
VERTEX
8
0
10
67.2678125
20
20.582362500000002
30
0
0
VERTEX
8
0
10
67.19928125
20
20.504215625
30
0
0
VERTEX
8
0
10
67.12578437500001
20
20.43071875
30
0
0
VERTEX
8
0
10
67.04763750000001
20
20.3621875
30
0
0
VERTEX
8
0
10
66.96517812500001
20
20.298915625
30
0
0
VERTEX
8
0
10
66.87875625000001
20
20.24116875
30
0
0
VERTEX
8
0
10
66.78874375000001
20
20.1892
30
0
0
VERTEX
8
0
10
66.695521875
20
20.143228125
30
0
0
VERTEX
8
0
10
66.599496875
20
20.103453125
30
0
0
VERTEX
8
0
10
66.501075
20
20.07004375
30
0
0
VERTEX
8
0
10
66.400678125
20
20.043140625
30
0
0
VERTEX
8
0
10
66.29873437500001
20
20.022865625
30
0
0
VERTEX
8
0
10
66.195684375
20
20.009296875
30
0
0
VERTEX
8
0
10
66.09196875
20
20.0025
30
0
0
VERTEX
8
0
10
65.98803125
20
20.0025
30
0
0
VERTEX
8
0
10
65.884315625
20
20.009296875
30
0
0
VERTEX
8
0
10
65.781265625
20
20.022865625
30
0
0
VERTEX
8
0
10
65.679321875
20
20.043140625
30
0
0
VERTEX
8
0
10
65.578925
20
20.07004375
30
0
0
VERTEX
8
0
10
65.480503125
20
20.103453125
30
0
0
VERTEX
8
0
10
65.384478125
20
20.143228125
30
0
0
VERTEX
8
0
10
65.29125625
20
20.1892
30
0
0
VERTEX
8
0
10
65.20124375
20
20.24116875
30
0
0
VERTEX
8
0
10
65.114821875
20
20.298915625
30
0
0
VERTEX
8
0
10
65.0323625
20
20.3621875
30
0
0
VERTEX
8
0
10
64.954215625
20
20.43071875
30
0
0
VERTEX
8
0
10
64.88071875
20
20.504215625
30
0
0
VERTEX
8
0
10
64.81218750000001
20
20.582362500000002
30
0
0
VERTEX
8
0
10
64.74891562500001
20
20.664821875
30
0
0
VERTEX
8
0
10
64.69116875
20
20.75124375
30
0
0
VERTEX
8
0
10
64.6392
20
20.84125625
30
0
0
VERTEX
8
0
10
64.593228125
20
20.934478125000002
30
0
0
VERTEX
8
0
10
64.553453125
20
21.030503125000003
30
0
0
VERTEX
8
0
10
64.52004375
20
21.128925000000002
30
0
0
VERTEX
8
0
10
64.49314062500001
20
21.229321875
30
0
0
VERTEX
8
0
10
64.472865625
20
21.331265625
30
0
0
VERTEX
8
0
10
64.459296875
20
21.434315625
30
0
0
VERTEX
8
0
10
64.4525
20
21.53803125
30
0
0
VERTEX
8
0
10
64.4525
20
21.64196875
30
0
0
VERTEX
8
0
10
64.459296875
20
21.745684375
30
0
0
VERTEX
8
0
10
64.472865625
20
21.848734375
30
0
0
VERTEX
8
0
10
64.49314062500001
20
21.950678125
30
0
0
VERTEX
8
0
10
64.52004375
20
22.051075
30
0
0
VERTEX
8
0
10
64.553453125
20
22.149496875
30
0
0
VERTEX
8
0
10
64.593228125
20
22.245521875
30
0
0
VERTEX
8
0
10
64.6392
20
22.338743750000003
30
0
0
VERTEX
8
0
10
64.69116875
20
22.428756250000003
30
0
0
VERTEX
8
0
10
64.74891562500001
20
22.515178125000002
30
0
0
VERTEX
8
0
10
64.81218750000001
20
22.5976375
30
0
0
VERTEX
8
0
10
64.88071875
20
22.675784375000003
30
0
0
VERTEX
8
0
10
64.954215625
20
22.749281250000003
30
0
0
VERTEX
8
0
10
65.0323625
20
22.817812500000002
30
0
0
VERTEX
8
0
10
65.114821875
20
22.881084375
30
0
0
VERTEX
8
0
10
65.20124375
20
22.93883125
30
0
0
VERTEX
8
0
10
65.29125625
20
22.9908
30
0
0
VERTEX
8
0
10
65.384478125
20
23.036771875
30
0
0
VERTEX
8
0
10
65.480503125
20
23.076546875000002
30
0
0
VERTEX
8
0
10
65.578925
20
23.10995625
30
0
0
VERTEX
8
0
10
65.679321875
20
23.136859375
30
0
0
VERTEX
8
0
10
65.781265625
20
23.157134375000002
30
0
0
VERTEX
8
0
10
65.884315625
20
23.170703125000003
30
0
0
VERTEX
8
0
10
65.98803125
20
23.177500000000002
30
0
0
VERTEX
8
0
10
66.09196875
20
23.177500000000002
30
0
0
VERTEX
8
0
10
66.195684375
20
23.170703125000003
30
0
0
VERTEX
8
0
10
66.29873437500001
20
23.157134375000002
30
0
0
VERTEX
8
0
10
66.400678125
20
23.136859375
30
0
0
VERTEX
8
0
10
66.501075
20
23.10995625
30
0
0
VERTEX
8
0
10
66.599496875
20
23.076546875000002
30
0
0
VERTEX
8
0
10
66.695521875
20
23.036771875
30
0
0
VERTEX
8
0
10
66.78874375000001
20
22.9908
30
0
0
VERTEX
8
0
10
66.87875625000001
20
22.93883125
30
0
0
VERTEX
8
0
10
66.96517812500001
20
22.881084375
30
0
0
VERTEX
8
0
10
67.04763750000001
20
22.817812500000002
30
0
0
VERTEX
8
0
10
67.12578437500001
20
22.749281250000003
30
0
0
VERTEX
8
0
10
67.19928125
20
22.675784375000003
30
0
0
VERTEX
8
0
10
67.2678125
20
22.5976375
30
0
0
VERTEX
8
0
10
67.331084375
20
22.515178125000002
30
0
0
VERTEX
8
0
10
67.38883125000001
20
22.428756250000003
30
0
0
VERTEX
8
0
10
67.44080000000001
20
22.338743750000003
30
0
0
VERTEX
8
0
10
67.486771875
20
22.245521875
30
0
0
VERTEX
8
0
10
67.52654687500001
20
22.149496875
30
0
0
VERTEX
8
0
10
67.55995625
20
22.051075
30
0
0
VERTEX
8
0
10
67.586859375
20
21.950678125
30
0
0
VERTEX
8
0
10
67.607134375
20
21.848734375
30
0
0
VERTEX
8
0
10
67.620703125
20
21.745684375
30
0
0
VERTEX
8
0
10
67.6275
20
21.64196875
30
0
0
VERTEX
8
0
10
67.6275
20
21.53803125
30
0
0
SEQEND
0
POLYLINE
66
1
8
holes
10
0.0
20
0.0
30
0.0
70
1
0
VERTEX
8
0
10
15.557500000000001
20
16.45803125
30
0
0
VERTEX
8
0
10
15.550703125
20
16.354315625
30
0
0
VERTEX
8
0
10
15.537134375
20
16.251265625000002
30
0
0
VERTEX
8
0
10
15.516859375000001
20
16.149321875000002
30
0
0
VERTEX
8
0
10
15.48995625
20
16.048925
30
0
0
VERTEX
8
0
10
15.456546875
20
15.950503125000001
30
0
0
VERTEX
8
0
10
15.416771875
20
15.854478125
30
0
0
VERTEX
8
0
10
15.370800000000001
20
15.76125625
30
0
0
VERTEX
8
0
10
15.31883125
20
15.67124375
30
0
0
VERTEX
8
0
10
15.261084375000001
20
15.584821875000001
30
0
0
VERTEX
8
0
10
15.197812500000001
20
15.5023625
30
0
0
VERTEX
8
0
10
15.12928125
20
15.424215625
30
0
0
VERTEX
8
0
10
15.055784375
20
15.35071875
30
0
0
VERTEX
8
0
10
14.9776375
20
15.282187500000001
30
0
0
VERTEX
8
0
10
14.895178125000001
20
15.218915625000001
30
0
0
VERTEX
8
0
10
14.80875625
20
15.16116875
30
0
0
VERTEX
8
0
10
14.718743750000002
20
15.109200000000001
30
0
0
VERTEX
8
0
10
14.625521875
20
15.063228125
30
0
0
VERTEX
8
0
10
14.529496875000001
20
15.023453125000001
30
0
0
VERTEX
8
0
10
14.431075
20
14.99004375
30
0
0
VERTEX
8
0
10
14.330678125
20
14.963140625000001
30
0
0
VERTEX
8
0
10
14.228734375
20
14.942865625000001
30
0
0
VERTEX
8
0
10
14.125684375
20
14.929296875
30
0
0
VERTEX
8
0
10
14.021968750000001
20
14.922500000000001
30
0
0
VERTEX
8
0
10
13.91803125
20
14.922500000000001
30
0
0
VERTEX
8
0
10
13.814315625
20
14.929296875
30
0
0
VERTEX
8
0
10
13.711265625000001
20
14.942865625000001
30
0
0
VERTEX
8
0
10
13.609321875000001
20
14.963140625000001
30
0
0
VERTEX
8
0
10
13.508925000000001
20
14.99004375
30
0
0
VERTEX
8
0
10
13.410503125
20
15.023453125000001
30
0
0
VERTEX
8
0
10
13.314478125
20
15.063228125
30
0
0
VERTEX
8
0
10
13.221256250000001
20
15.109200000000001
30
0
0
VERTEX
8
0
10
13.131243750000001
20
15.16116875
30
0
0
VERTEX
8
0
10
13.044821875
20
15.218915625000001
30
0
0
VERTEX
8
0
10
12.962362500000001
20
15.282187500000001
30
0
0
VERTEX
8
0
10
12.884215625000001
20
15.35071875
30
0
0
VERTEX
8
0
10
12.810718750000001
20
15.424215625
30
0
0
VERTEX
8
0
10
12.7421875
20
15.5023625
30
0
0
VERTEX
8
0
10
12.678915625
20
15.584821875000001
30
0
0
VERTEX
8
0
10
12.62116875
20
15.67124375
30
0
0
VERTEX
8
0
10
12.5692
20
15.76125625
30
0
0
VERTEX
8
0
10
12.523228125000001
20
15.854478125
30
0
0
VERTEX
8
0
10
12.483453125
20
15.950503125000001
30
0
0
VERTEX
8
0
10
12.45004375
20
16.048925
30
0
0
VERTEX
8
0
10
12.423140625
20
16.149321875000002
30
0
0
VERTEX
8
0
10
12.402865625
20
16.251265625000002
30
0
0
VERTEX
8
0
10
12.389296875000001
20
16.354315625
30
0
0
VERTEX
8
0
10
12.3825
20
16.45803125
30
0
0
VERTEX
8
0
10
12.3825
20
16.561968750000002
30
0
0
VERTEX
8
0
10
12.389296875000001
20
16.665684375
30
0
0
VERTEX
8
0
10
12.402865625
20
16.768734375
30
0
0
VERTEX
8
0
10
12.423140625
20
16.870678125
30
0
0
VERTEX
8
0
10
12.45004375
20
16.971075000000003
30
0
0
VERTEX
8
0
10
12.483453125
20
17.069496875000002
30
0
0
VERTEX
8
0
10
12.523228125000001
20
17.165521875
30
0
0
VERTEX
8
0
10
12.5692
20
17.25874375
30
0
0
VERTEX
8
0
10
12.62116875
20
17.34875625
30
0
0
VERTEX
8
0
10
12.678915625
20
17.435178125
30
0
0
VERTEX
8
0
10
12.7421875
20
17.5176375
30
0
0
VERTEX
8
0
10
12.810718750000001
20
17.595784375
30
0
0
VERTEX
8
0
10
12.884215625000001
20
17.66928125
30
0
0
VERTEX
8
0
10
12.962362500000001
20
17.7378125
30
0
0
VERTEX
8
0
10
13.044821875
20
17.801084375000002
30
0
0
VERTEX
8
0
10
13.131243750000001
20
17.85883125
30
0
0
VERTEX
8
0
10
13.221256250000001
20
17.910800000000002
30
0
0
VERTEX
8
0
10
13.314478125
20
17.956771875
30
0
0
VERTEX
8
0
10
13.410503125
20
17.996546875
30
0
0
VERTEX
8
0
10
13.508925000000001
20
18.02995625
30
0
0
VERTEX
8
0
10
13.609321875000001
20
18.056859375000002
30
0
0
VERTEX
8
0
10
13.711265625000001
20
18.077134375
30
0
0
VERTEX
8
0
10
13.814315625
20
18.090703125
30
0
0
VERTEX
8
0
10
13.91803125
20
18.0975
30
0
0
VERTEX
8
0
10
14.021968750000001
20
18.0975
30
0
0
VERTEX
8
0
10
14.125684375
20
18.090703125
30
0
0
VERTEX
8
0
10
14.228734375
20
18.077134375
30
0
0
VERTEX
8
0
10
14.330678125
20
18.056859375000002
30
0
0
VERTEX
8
0
10
14.431075
20
18.02995625
30
0
0
VERTEX
8
0
10
14.529496875000001
20
17.996546875
30
0
0
VERTEX
8
0
10
14.625521875
20
17.956771875
30
0
0
VERTEX
8
0
10
14.718743750000002
20
17.910800000000002
30
0
0
VERTEX
8
0
10
14.80875625
20
17.85883125
30
0
0
VERTEX
8
0
10
14.895178125000001
20
17.801084375000002
30
0
0
VERTEX
8
0
10
14.9776375
20
17.7378125
30
0
0
VERTEX
8
0
10
15.055784375
20
17.66928125
30
0
0
VERTEX
8
0
10
15.12928125
20
17.595784375
30
0
0
VERTEX
8
0
10
15.197812500000001
20
17.5176375
30
0
0
VERTEX
8
0
10
15.261084375000001
20
17.435178125
30
0
0
VERTEX
8
0
10
15.31883125
20
17.34875625
30
0
0
VERTEX
8
0
10
15.370800000000001
20
17.25874375
30
0
0
VERTEX
8
0
10
15.416771875
20
17.165521875
30
0
0
VERTEX
8
0
10
15.456546875
20
17.069496875000002
30
0
0
VERTEX
8
0
10
15.48995625
20
16.971075000000003
30
0
0
VERTEX
8
0
10
15.516859375000001
20
16.870678125
30
0
0
VERTEX
8
0
10
15.537134375
20
16.768734375
30
0
0
VERTEX
8
0
10
15.550703125
20
16.665684375
30
0
0
VERTEX
8
0
10
15.557500000000001
20
16.561968750000002
30
0
0
VERTEX
8
0
10
15.557500000000001
20
16.45803125
30
0
0
SEQEND
0
POLYLINE
66
1
8
1_copper
10
0.0
20
0.0
30
0.0
70
1
0
VERTEX
8
0
10
82.38254375000001
20
52.5345375
30
0
42
0.3578057741447831
0
VERTEX
8
0
10
83.0326
20
53.251765625000004
30
0
0
VERTEX
8
0
10
83.0326
20
54.850634375000006
30
0
0
VERTEX
8
0
10
83.02526250000001
20
54.925143750000004
30
0
42
0.9063472543261978
0
VERTEX
8
0
10
81.5086
20
54.850634375000006
30
0
0
VERTEX
8
0
10
81.5086
20
53.251765625000004
30
0
0
VERTEX
8
0
10
81.5159375
20
53.17725625
30
0
42
0.38574240611503685
0
VERTEX
8
0
10
82.308034375
20
52.5272
30
0
0
SEQEND
0
POLYLINE
66
1
8
16_copper
10
0.0
20
0.0
30
0.0
70
1
0
VERTEX
8
0
10
82.38254375000001
20
52.5345375
30
0
42
0.3578057741447831
0
VERTEX
8
0
10
83.0326
20
53.251765625000004
30
0
0
VERTEX
8
0
10
83.0326
20
54.850634375000006
30
0
0
VERTEX
8
0
10
83.02526250000001
20
54.925143750000004
30
0
42
0.9063472543261978
0
VERTEX
8
0
10
81.5086
20
54.850634375000006
30
0
0
VERTEX
8
0
10
81.5086
20
53.251765625000004
30
0
0
VERTEX
8
0
10
81.5159375
20
53.17725625
30
0
42
0.38574240611503685
0
VERTEX
8
0
10
82.308034375
20
52.5272
30
0
0
SEQEND
0
POLYLINE
66
1
8
1_copper
10
0.0
20
0.0
30
0.0
70
1
0
VERTEX
8
0
10
61.83394375
20
69.0953375
30
0
42
0.9063472543261978
0
VERTEX
8
0
10
61.759434375000005
20
70.61200000000001
30
0
0
VERTEX
8
0
10
60.160565625000004
20
70.61200000000001
30
0
0
VERTEX
8
0
10
60.086056250000006
20
70.6046625
30
0
42
0.9063472543261978
0
VERTEX
8
0
10
60.160565625000004
20
69.08800000000001
30
0
0
VERTEX
8
0
10
61.759434375000005
20
69.08800000000001
30
0
0
SEQEND
0
POLYLINE
66
1
8
16_copper
10
0.0
20
0.0
30
0.0
70
1
0
VERTEX
8
0
10
50.934962500000005
20
64.26239375
30
0
0
VERTEX
8
0
10
50.942921875
20
64.2622
30
0
42
0.17540035433691983
0
VERTEX
8
0
10
51.345525
20
64.41944062500001
30
0
0
VERTEX
8
0
10
51.3760125
20
64.4479875
30
0
0
VERTEX
8
0
10
53.603025
20
66.675
30
0
0
VERTEX
8
0
10
55.88
20
66.675
30
0
0
VERTEX
8
0
10
55.8879625
20
66.67539375
30
0
0
VERTEX
8
0
10
55.895921875000006
20
66.6752
30
0
42
0.17540035433691983
0
VERTEX
8
0
10
56.298525000000005
20
66.832440625
30
0
0
VERTEX
8
0
10
56.329012500000005
20
66.86098750000001
30
0
0
VERTEX
8
0
10
58.683025
20
69.215
30
0
0
VERTEX
8
0
10
59.776781250000006
20
69.215
30
0
0
VERTEX
8
0
10
59.80578125
20
69.195621875
30
0
42
0.12333821538885169
0
VERTEX
8
0
10
60.160565625000004
20
69.08800000000001
30
0
0
VERTEX
8
0
10
61.759434375000005
20
69.08800000000001
30
0
0
VERTEX
8
0
10
61.83394375
20
69.0953375
30
0
42
0.9063472543261978
0
VERTEX
8
0
10
61.759434375000005
20
70.61200000000001
30
0
0
VERTEX
8
0
10
60.160565625000004
20
70.61200000000001
30
0
0
VERTEX
8
0
10
60.086056250000006
20
70.6046625
30
0
42
0.09849124195758484
0
VERTEX
8
0
10
59.80578125
20
70.504378125
30
0
0
VERTEX
8
0
10
59.776781250000006
20
70.485
30
0
0
VERTEX
8
0
10
58.42
20
70.485
30
0
0
VERTEX
8
0
10
58.412037500000004
20
70.48460625
30
0
0
VERTEX
8
0
10
58.404078125000005
20
70.4848
30
0
42
0.17540035433691983
0
VERTEX
8
0
10
58.001475
20
70.327559375
30
0
0
VERTEX
8
0
10
57.9709875
20
70.2990125
30
0
0
VERTEX
8
0
10
55.616975000000004
20
67.94500000000001
30
0
0
VERTEX
8
0
10
53.34
20
67.94500000000001
30
0
0
VERTEX
8
0
10
53.332037500000006
20
67.94460625
30
0
0
VERTEX
8
0
10
53.324078125
20
67.9448
30
0
42
0.17540035433691983
0
VERTEX
8
0
10
52.921475
20
67.787559375
30
0
0
VERTEX
8
0
10
52.8909875
20
67.7590125
30
0
0
VERTEX
8
0
10
50.643609375000004
20
65.511634375
30
0
0
VERTEX
8
0
10
50.613765625
20
65.504075
30
0
42
0.7918183933000199
0
VERTEX
8
0
10
50.695696875
20
64.27062500000001
30
0
0
VERTEX
8
0
10
50.75825625
20
64.263375
30
0
0
VERTEX
8
0
10
50.800000000000004
20
64.262
30
0
0
VERTEX
8
0
10
50.927
20
64.262
30
0
0
SEQEND
0
POLYLINE
66
1
8
1_copper
10
0.0
20
0.0
30
0.0
70
1
0
VERTEX
8
0
10
55.48394375
20
69.0953375
30
0
42
0.9063472543261978
0
VERTEX
8
0
10
55.409434375000004
20
70.61200000000001
30
0
0
VERTEX
8
0
10
53.810565625
20
70.61200000000001
30
0
0
VERTEX
8
0
10
53.736056250000004
20
70.6046625
30
0
42
0.9063472543261978
0
VERTEX
8
0
10
53.810565625
20
69.08800000000001
30
0
0
VERTEX
8
0
10
55.409434375000004
20
69.08800000000001
30
0
0
SEQEND
0
POLYLINE
66
1
8
16_copper
10
0.0
20
0.0
30
0.0
70
1
0
VERTEX
8
0
10
48.333456250000005
20
64.0122625
30
0
42
0.36193552744711505
0
VERTEX
8
0
10
48.893625
20
64.60125625
30
0
0
VERTEX
8
0
10
48.895
20
64.643
30
0
0
VERTEX
8
0
10
48.895
20
65.77697500000001
30
0
0
VERTEX
8
0
10
52.333025
20
69.215
30
0
0
VERTEX
8
0
10
53.426781250000005
20
69.215
30
0
0
VERTEX
8
0
10
53.45578125
20
69.195621875
30
0
42
0.12333821538885169
0
VERTEX
8
0
10
53.810565625
20
69.08800000000001
30
0
0
VERTEX
8
0
10
55.409434375000004
20
69.08800000000001
30
0
0
VERTEX
8
0
10
55.48394375
20
69.0953375
30
0
42
0.9063472543261978
0
VERTEX
8
0
10
55.409434375000004
20
70.61200000000001
30
0
0
VERTEX
8
0
10
53.810565625
20
70.61200000000001
30
0
0
VERTEX
8
0
10
53.736056250000004
20
70.6046625
30
0
42
0.09849124195758484
0
VERTEX
8
0
10
53.45578125
20
70.504378125
30
0
0
VERTEX
8
0
10
53.426781250000005
20
70.485
30
0
0
VERTEX
8
0
10
52.07
20
70.485
30
0
0
VERTEX
8
0
10
52.0620375
20
70.48460625
30
0
0
VERTEX
8
0
10
52.054078125000004
20
70.4848
30
0
42
0.17540035433691983
0
VERTEX
8
0
10
51.651475000000005
20
70.327559375
30
0
0
VERTEX
8
0
10
51.620987500000005
20
70.2990125
30
0
0
VERTEX
8
0
10
47.8109875
20
66.4890125
30
0
0
VERTEX
8
0
10
47.805646875
20
66.4831125
30
0
0
VERTEX
8
0
10
47.79986875
20
66.4776125
30
0
42
0.17539971942470112
0
VERTEX
8
0
10
47.626375
20
66.08174375
30
0
0
VERTEX
8
0
10
47.625
20
66.04
30
0
0
VERTEX
8
0
10
47.625
20
64.643
30
0
0
VERTEX
8
0
10
47.628121875000005
20
64.5801
30
0
42
0.3902513642870399
0
VERTEX
8
0
10
48.270615625000005
20
64.0080875
30
0
0
SEQEND
0
POLYLINE
66
1
8
1_copper
10
0.0
20
0.0
30
0.0
70
1
0
VERTEX
8
0
10
49.13394375
20
69.0953375
30
0
42
0.9063472543261978
0
VERTEX
8
0
10
49.059434375
20
70.61200000000001
30
0
0
VERTEX
8
0
10
47.460565625
20
70.61200000000001
30
0
0
VERTEX
8
0
10
47.38605625
20
70.6046625
30
0
42
0.9063472543261978
0
VERTEX
8
0
10
47.460565625
20
69.08800000000001
30
0
0
VERTEX
8
0
10
49.059434375
20
69.08800000000001
30
0
0
SEQEND
0
POLYLINE
66
1
8
16_copper
10
0.0
20
0.0
30
0.0
70
1
0
VERTEX
8
0
10
45.793456250000006
20
64.2662625
30
0
42
0.36193552744711505
0
VERTEX
8
0
10
46.353625
20
64.85525625
30
0
0
VERTEX
8
0
10
46.355000000000004
20
64.897
30
0
0
VERTEX
8
0
10
46.355000000000004
20
67.046975
30
0
0
VERTEX
8
0
10
48.396025
20
69.08800000000001
30
0
0
VERTEX
8
0
10
49.059434375
20
69.08800000000001
30
0
0
VERTEX
8
0
10
49.13394375
20
69.0953375
30
0
42
0.9063472543261978
0
VERTEX
8
0
10
49.059434375
20
70.61200000000001
30
0
0
VERTEX
8
0
10
47.460565625
20
70.61200000000001
30
0
0
VERTEX
8
0
10
47.38605625
20
70.6046625
30
0
42
0.5664926638667324
0
VERTEX
8
0
10
46.88521875
20
69.39553125
30
0
0
VERTEX
8
0
10
46.895265625
20
69.383290625
30
0
0
VERTEX
8
0
10
45.270987500000004
20
67.7590125
30
0
0
VERTEX
8
0
10
45.265646875
20
67.7531125
30
0
0
VERTEX
8
0
10
45.25986875
20
67.7476125
30
0
42
0.17539971942470112
0
VERTEX
8
0
10
45.086375000000004
20
67.35174375
30
0
0
VERTEX
8
0
10
45.085
20
67.31
30
0
0
VERTEX
8
0
10
45.085
20
64.897
30
0
0
VERTEX
8
0
10
45.088121875
20
64.8341
30
0
42
0.3902513642870399
0
VERTEX
8
0
10
45.730615625
20
64.2620875
30
0
0
SEQEND
0
POLYLINE
66
1
8
1_copper
10
0.0
20
0.0
30
0.0
70
1
0
VERTEX
8
0
10
42.78394375
20
69.0953375
30
0
42
0.9063472543261978
0
VERTEX
8
0
10
42.709434375
20
70.61200000000001
30
0
0
VERTEX
8
0
10
41.110565625
20
70.61200000000001
30
0
0
VERTEX
8
0
10
41.03605625
20
70.6046625
30
0
42
0.9063472543261978
0
VERTEX
8
0
10
41.110565625
20
69.08800000000001
30
0
0
VERTEX
8
0
10
42.709434375
20
69.08800000000001
30
0
0
SEQEND
0
POLYLINE
66
1
8
16_copper
10
0.0
20
0.0
30
0.0
70
1
0
VERTEX
8
0
10
41.734725000000005
20
64.0129
30
0
42
0.1499377984765868
0
VERTEX
8
0
10
42.074525
20
64.165440625
30
0
0
VERTEX
8
0
10
42.1050125
20
64.1939875
30
0
0
VERTEX
8
0
10
42.3590125
20
64.4479875
30
0
0
VERTEX
8
0
10
42.364353125
20
64.45388750000001
30
0
0
VERTEX
8
0
10
42.37013125
20
64.4593875
30
0
42
0.17539971942470112
0
VERTEX
8
0
10
42.543625
20
64.85525625
30
0
0
VERTEX
8
0
10
42.545
20
64.897
30
0
0
VERTEX
8
0
10
42.545
20
69.08800000000001
30
0
0
VERTEX
8
0
10
42.709434375
20
69.08800000000001
30
0
42
0.9520795017710559
0
VERTEX
8
0
10
42.709434375
20
70.61200000000001
30
0
0
VERTEX
8
0
10
41.110565625
20
70.61200000000001
30
0
0
VERTEX
8
0
10
41.03605625
20
70.6046625
30
0
42
0.9063472543261978
0
VERTEX
8
0
10
41.110565625
20
69.08800000000001
30
0
0
VERTEX
8
0
10
41.275
20
69.08800000000001
30
0
0
VERTEX
8
0
10
41.275
20
65.160025
30
0
0
VERTEX
8
0
10
41.206987500000004
20
65.09201250000001
30
0
42
0.6772849438658036
0
VERTEX
8
0
10
41.671921875
20
64.0082
30
0
0
SEQEND
0
POLYLINE
66
1
8
1_copper
10
0.0
20
0.0
30
0.0
70
1
0
VERTEX
8
0
10
36.433943750000005
20
69.0953375
30
0
42
0.9063472543261978
0
VERTEX
8
0
10
36.359434375
20
70.61200000000001
30
0
0
VERTEX
8
0
10
34.760565625
20
70.61200000000001
30
0
0
VERTEX
8
0
10
34.68605625
20
70.6046625
30
0
42
0.9063472543261978
0
VERTEX
8
0
10
34.760565625
20
69.08800000000001
30
0
0
VERTEX
8
0
10
36.359434375
20
69.08800000000001
30
0
0
SEQEND
0
POLYLINE
66
1
8
16_copper
10
0.0
20
0.0
30
0.0
70
1
0
VERTEX
8
0
10
39.18945625
20
64.2662625
30
0
42
0.36193552744711505
0
VERTEX
8
0
10
39.749625
20
64.85525625
30
0
0
VERTEX
8
0
10
39.751000000000005
20
64.897
30
0
0
VERTEX
8
0
10
39.751000000000005
20
66.294
30
0
0
VERTEX
8
0
10
39.750606250000004
20
66.3019625
30
0
0
VERTEX
8
0
10
39.750800000000005
20
66.309921875
30
0
42
0.17540035433691983
0
VERTEX
8
0
10
39.593559375000005
20
66.712525
30
0
0
VERTEX
8
0
10
39.5650125
20
66.7430125
30
0
0
VERTEX
8
0
10
36.924734375
20
69.383290625
30
0
0
VERTEX
8
0
10
36.93478125
20
69.39553125
30
0
42
0.5993767744791428
0
VERTEX
8
0
10
36.359434375
20
70.61200000000001
30
0
0
VERTEX
8
0
10
34.760565625
20
70.61200000000001
30
0
0
VERTEX
8
0
10
34.68605625
20
70.6046625
30
0
42
0.9063472543261978
0
VERTEX
8
0
10
34.760565625
20
69.08800000000001
30
0
0
VERTEX
8
0
10
35.423975
20
69.08800000000001
30
0
0
VERTEX
8
0
10
38.481
20
66.030975
30
0
0
VERTEX
8
0
10
38.481
20
64.897
30
0
0
VERTEX
8
0
10
38.484121875
20
64.8341
30
0
42
0.3902513642870399
0
VERTEX
8
0
10
39.126615625
20
64.2620875
30
0
0
SEQEND
0
POLYLINE
66
1
8
1_copper
10
0.0
20
0.0
30
0.0
70
1
0
VERTEX
8
0
10
30.083943750000003
20
69.0953375
30
0
42
0.9063472543261978
0
VERTEX
8
0
10
30.009434375
20
70.61200000000001
30
0
0
VERTEX
8
0
10
28.410565625
20
70.61200000000001
30
0
0
VERTEX
8
0
10
28.336056250000002
20
70.6046625
30
0
42
0.9063472543261978
0
VERTEX
8
0
10
28.410565625
20
69.08800000000001
30
0
0
VERTEX
8
0
10
30.009434375
20
69.08800000000001
30
0
0
SEQEND
0
POLYLINE
66
1
8
16_copper
10
0.0
20
0.0
30
0.0
70
1
0
VERTEX
8
0
10
36.64945625
20
64.0122625
30
0
42
0.36193552744711505
0
VERTEX
8
0
10
37.209625
20
64.60125625
30
0
0
VERTEX
8
0
10
37.211
20
64.643
30
0
0
VERTEX
8
0
10
37.211
20
65.024
30
0
0
VERTEX
8
0
10
37.210606250000005
20
65.0319625
30
0
0
VERTEX
8
0
10
37.2108
20
65.039921875
30
0
42
0.17540035433691983
0
VERTEX
8
0
10
37.053559375
20
65.442525
30
0
0
VERTEX
8
0
10
37.0250125
20
65.47301250000001
30
0
0
VERTEX
8
0
10
34.7390125
20
67.7590125
30
0
0
VERTEX
8
0
10
34.733112500000004
20
67.764353125
30
0
0
VERTEX
8
0
10
34.7276125
20
67.77013125
30
0
42
0.17539971942470112
0
VERTEX
8
0
10
34.33174375
20
67.943625
30
0
0
VERTEX
8
0
10
34.29
20
67.94500000000001
30
0
0
VERTEX
8
0
10
32.013025
20
67.94500000000001
30
0
0
VERTEX
8
0
10
30.574734375000002
20
69.383290625
30
0
0
VERTEX
8
0
10
30.584781250000002
20
69.39553125
30
0
42
0.5993767744791428
0
VERTEX
8
0
10
30.009434375
20
70.61200000000001
30
0
0
VERTEX
8
0
10
28.410565625
20
70.61200000000001
30
0
0
VERTEX
8
0
10
28.336056250000002
20
70.6046625
30
0
42
0.9063472543261978
0
VERTEX
8
0
10
28.410565625
20
69.08800000000001
30
0
0
VERTEX
8
0
10
29.073975
20
69.08800000000001
30
0
0
VERTEX
8
0
10
31.3009875
20
66.86098750000001
30
0
0
VERTEX
8
0
10
31.306887500000002
20
66.855646875
30
0
0
VERTEX
8
0
10
31.3123875
20
66.84986875
30
0
42
0.17539971942470112
0
VERTEX
8
0
10
31.70825625
20
66.67637500000001
30
0
0
VERTEX
8
0
10
31.75
20
66.675
30
0
0
VERTEX
8
0
10
34.026975
20
66.675
30
0
0
VERTEX
8
0
10
35.941
20
64.760975
30
0
0
VERTEX
8
0
10
35.941
20
64.643
30
0
42
0.4191187496520444
0
VERTEX
8
0
10
36.586615625
20
64.0080875
30
0
0
SEQEND
0
POLYLINE
66
1
8
1_copper
10
0.0
20
0.0
30
0.0
70
1
0
VERTEX
8
0
10
16.040100000000002
20
74.598590625
30
0
0
VERTEX
8
0
10
16.040100000000002
20
75.261409375
30
0
0
VERTEX
8
0
10
15.571409375
20
75.73010000000001
30
0
0
VERTEX
8
0
10
14.908590625
20
75.73010000000001
30
0
0
VERTEX
8
0
10
14.439900000000002
20
75.261409375
30
0
0
VERTEX
8
0
10
14.439900000000002
20
74.598590625
30
0
0
VERTEX
8
0
10
14.908590625
20
74.1299
30
0
0
VERTEX
8
0
10
15.571409375
20
74.1299
30
0
0
SEQEND
0
POLYLINE
66
1
8
1_copper
10
0.0
20
0.0
30
0.0
70
1
0
VERTEX
8
0
10
61.83394375
20
74.1753375
30
0
42
0.9063472543261978
0
VERTEX
8
0
10
61.759434375000005
20
75.69200000000001
30
0
0
VERTEX
8
0
10
60.160565625000004
20
75.69200000000001
30
0
0
VERTEX
8
0
10
60.086056250000006
20
75.6846625
30
0
42
0.9063472543261978
0
VERTEX
8
0
10
60.160565625000004
20
74.168
30
0
0
VERTEX
8
0
10
61.759434375000005
20
74.168
30
0
0
SEQEND
0
POLYLINE
66
1
8
1_copper
10
0.0
20
0.0
30
0.0
70
1
0
VERTEX
8
0
10
55.48394375
20
74.1753375
30
0
42
0.9063472543261978
0
VERTEX
8
0
10
55.409434375000004
20
75.69200000000001
30
0
0
VERTEX
8
0
10
53.810565625
20
75.69200000000001
30
0
0
VERTEX
8
0
10
53.736056250000004
20
75.6846625
30
0
42
0.9063472543261978
0
VERTEX
8
0
10
53.810565625
20
74.168
30
0
0
VERTEX
8
0
10
55.409434375000004
20
74.168
30
0
0
SEQEND
0
POLYLINE
66
1
8
1_copper
10
0.0
20
0.0
30
0.0
70
1
0
VERTEX
8
0
10
49.13394375
20
74.1753375
30
0
42
0.9063472543261978
0
VERTEX
8
0
10
49.059434375
20
75.69200000000001
30
0
0
VERTEX
8
0
10
47.460565625
20
75.69200000000001
30
0
0
VERTEX
8
0
10
47.38605625
20
75.6846625
30
0
42
0.9063472543261978
0
VERTEX
8
0
10
47.460565625
20
74.168
30
0
0
VERTEX
8
0
10
49.059434375
20
74.168
30
0
0
SEQEND
0
POLYLINE
66
1
8
1_copper
10
0.0
20
0.0
30
0.0
70
1
0
VERTEX
8
0
10
42.78394375
20
74.1753375
30
0
42
0.9063472543261978
0
VERTEX
8
0
10
42.709434375
20
75.69200000000001
30
0
0
VERTEX
8
0
10
41.110565625
20
75.69200000000001
30
0
0
VERTEX
8
0
10
41.03605625
20
75.6846625
30
0
42
0.9063472543261978
0
VERTEX
8
0
10
41.110565625
20
74.168
30
0
0
VERTEX
8
0
10
42.709434375
20
74.168
30
0
0
SEQEND
0
POLYLINE
66
1
8
1_copper
10
0.0
20
0.0
30
0.0
70
1
0
VERTEX
8
0
10
36.433943750000005
20
74.1753375
30
0
42
0.9063472543261978
0
VERTEX
8
0
10
36.359434375
20
75.69200000000001
30
0
0
VERTEX
8
0
10
34.760565625
20
75.69200000000001
30
0
0
VERTEX
8
0
10
34.68605625
20
75.6846625
30
0
42
0.9063472543261978
0
VERTEX
8
0
10
34.760565625
20
74.168
30
0
0
VERTEX
8
0
10
36.359434375
20
74.168
30
0
0
SEQEND
0
POLYLINE
66
1
8
1_copper
10
0.0
20
0.0
30
0.0
70
1
0
VERTEX
8
0
10
30.083943750000003
20
74.1753375
30
0
42
0.9063472543261978
0
VERTEX
8
0
10
30.009434375
20
75.69200000000001
30
0
0
VERTEX
8
0
10
28.410565625
20
75.69200000000001
30
0
0
VERTEX
8
0
10
28.336056250000002
20
75.6846625
30
0
42
0.9063472543261978
0
VERTEX
8
0
10
28.410565625
20
74.168
30
0
0
VERTEX
8
0
10
30.009434375
20
74.168
30
0
0
SEQEND
0
POLYLINE
66
1
8
1_copper
10
0.0
20
0.0
30
0.0
70
1
0
VERTEX
8
0
10
82.38254375000001
20
60.0021375
30
0
42
0.3578057741447831
0
VERTEX
8
0
10
83.0326
20
60.719365625
30
0
0
VERTEX
8
0
10
83.0326
20
62.318234375
30
0
0
VERTEX
8
0
10
83.02526250000001
20
62.39274375
30
0
42
0.9063472543261978
0
VERTEX
8
0
10
81.5086
20
62.318234375
30
0
0
VERTEX
8
0
10
81.5086
20
60.719365625
30
0
0
VERTEX
8
0
10
81.5159375
20
60.644856250000004
30
0
42
0.38574240611503685
0
VERTEX
8
0
10
82.308034375
20
59.994800000000005
30
0
0
SEQEND
0
POLYLINE
66
1
8
1_copper
10
0.0
20
0.0
30
0.0
70
1
0
VERTEX
8
0
10
45.83194375
20
8.643337500000001
30
0
42
0.3578057741447831
0
VERTEX
8
0
10
46.482
20
9.360565625000001
30
0
0
VERTEX
8
0
10
46.482
20
10.959434375
30
0
0
VERTEX
8
0
10
46.4746625
20
11.03394375
30
0
42
0.9063472543261978
0
VERTEX
8
0
10
44.958000000000006
20
10.959434375
30
0
0
VERTEX
8
0
10
44.958000000000006
20
9.360565625000001
30
0
0
VERTEX
8
0
10
44.965337500000004
20
9.28605625
30
0
42
0.38574240611503685
0
VERTEX
8
0
10
45.757434375
20
8.636000000000001
30
0
0
SEQEND
0
POLYLINE
66
1
8
16_copper
10
0.0
20
0.0
30
0.0
70
1
0
VERTEX
8
0
10
86.3679625
20
28.57539375
30
0
0
VERTEX
8
0
10
86.375921875
20
28.575200000000002
30
0
42
0.17540035433691983
0
VERTEX
8
0
10
86.778525
20
28.732440625000002
30
0
0
VERTEX
8
0
10
86.80901250000001
20
28.760987500000002
30
0
0
VERTEX
8
0
10
95.69901250000001
20
37.6509875
30
0
0
VERTEX
8
0
10
95.70435312500001
20
37.6568875
30
0
0
VERTEX
8
0
10
95.71013125
20
37.6623875
30
0
42
0.17539971942470112
0
VERTEX
8
0
10
95.88362500000001
20
38.05825625
30
0
0
VERTEX
8
0
10
95.885
20
38.1
30
0
0
VERTEX
8
0
10
95.885
20
69.85000000000001
30
0
0
VERTEX
8
0
10
95.88460625
20
69.8579625
30
0
0
VERTEX
8
0
10
95.8848
20
69.865921875
30
0
42
0.17540035433691983
0
VERTEX
8
0
10
95.727559375
20
70.268525
30
0
0
VERTEX
8
0
10
95.69901250000001
20
70.2990125
30
0
0
VERTEX
8
0
10
90.61901250000001
20
75.3790125
30
0
0
VERTEX
8
0
10
90.6131125
20
75.384353125
30
0
0
VERTEX
8
0
10
90.6076125
20
75.39013125000001
30
0
42
0.17539971942470112
0
VERTEX
8
0
10
90.21174375000001
20
75.563625
30
0
0
VERTEX
8
0
10
90.17
20
75.565
30
0
0
VERTEX
8
0
10
62.14321875
20
75.565
30
0
0
VERTEX
8
0
10
62.114218750000006
20
75.584378125
30
0
42
0.12333821538885169
0
VERTEX
8
0
10
61.759434375000005
20
75.69200000000001
30
0
0
VERTEX
8
0
10
60.160565625000004
20
75.69200000000001
30
0
0
VERTEX
8
0
10
60.086056250000006
20
75.6846625
30
0
42
0.09849124195758484
0
VERTEX
8
0
10
59.80578125
20
75.584378125
30
0
0
VERTEX
8
0
10
59.776781250000006
20
75.565
30
0
0
VERTEX
8
0
10
55.79321875
20
75.565
30
0
0
VERTEX
8
0
10
55.764218750000005
20
75.584378125
30
0
42
0.12333821538885169
0
VERTEX
8
0
10
55.409434375000004
20
75.69200000000001
30
0
0
VERTEX
8
0
10
53.810565625
20
75.69200000000001
30
0
0
VERTEX
8
0
10
53.736056250000004
20
75.6846625
30
0
42
0.09849124195758484
0
VERTEX
8
0
10
53.45578125
20
75.584378125
30
0
0
VERTEX
8
0
10
53.426781250000005
20
75.565
30
0
0
VERTEX
8
0
10
49.44321875
20
75.565
30
0
0
VERTEX
8
0
10
49.41421875
20
75.584378125
30
0
42
0.12333821538885169
0
VERTEX
8
0
10
49.059434375
20
75.69200000000001
30
0
0
VERTEX
8
0
10
47.460565625
20
75.69200000000001
30
0
0
VERTEX
8
0
10
47.38605625
20
75.6846625
30
0
42
0.09849124195758484
0
VERTEX
8
0
10
47.10578125
20
75.584378125
30
0
0
VERTEX
8
0
10
47.07678125
20
75.565
30
0
0
VERTEX
8
0
10
43.093218750000005
20
75.565
30
0
0
VERTEX
8
0
10
43.06421875
20
75.584378125
30
0
42
0.12333821538885169
0
VERTEX
8
0
10
42.709434375
20
75.69200000000001
30
0
0
VERTEX
8
0
10
41.110565625
20
75.69200000000001
30
0
0
VERTEX
8
0
10
41.03605625
20
75.6846625
30
0
42
0.09849124195758484
0
VERTEX
8
0
10
40.755781250000005
20
75.584378125
30
0
0
VERTEX
8
0
10
40.72678125
20
75.565
30
0
0
VERTEX
8
0
10
36.743218750000004
20
75.565
30
0
0
VERTEX
8
0
10
36.71421875
20
75.584378125
30
0
42
0.12333821538885169
0
VERTEX
8
0
10
36.359434375
20
75.69200000000001
30
0
0
VERTEX
8
0
10
34.760565625
20
75.69200000000001
30
0
0
VERTEX
8
0
10
34.68605625
20
75.6846625
30
0
42
0.09849124195758484
0
VERTEX
8
0
10
34.405781250000004
20
75.584378125
30
0
0
VERTEX
8
0
10
34.37678125
20
75.565
30
0
0
VERTEX
8
0
10
30.393218750000003
20
75.565
30
0
0
VERTEX
8
0
10
30.364218750000003
20
75.584378125
30
0
42
0.12333821538885169
0
VERTEX
8
0
10
30.009434375
20
75.69200000000001
30
0
0
VERTEX
8
0
10
28.410565625
20
75.69200000000001
30
0
0
VERTEX
8
0
10
28.336056250000002
20
75.6846625
30
0
42
0.09849124195758484
0
VERTEX
8
0
10
28.055781250000003
20
75.584378125
30
0
0
VERTEX
8
0
10
28.026781250000003
20
75.565
30
0
0
VERTEX
8
0
10
15.736509375
20
75.565
30
0
0
VERTEX
8
0
10
15.571409375
20
75.73010000000001
30
0
0
VERTEX
8
0
10
14.908590625
20
75.73010000000001
30
0
0
VERTEX
8
0
10
14.743490625000002
20
75.565
30
0
0
VERTEX
8
0
10
6.27886875
20
75.565
30
0
0
VERTEX
8
0
10
6.257912500000001
20
75.56395937500001
30
0
0
VERTEX
8
0
10
6.23695625
20
75.563615625
30
0
42
0.5737617729695024
0
VERTEX
8
0
10
5.747321875
20
74.58260625
30
0
0
VERTEX
8
0
10
5.755415625
20
74.57106875000001
30
0
42
0.005453379003454901
0
VERTEX
8
0
10
5.7633656250000005
20
74.559734375
30
0
0
VERTEX
8
0
10
5.77130625
20
74.548415625
30
0
0
VERTEX
8
0
10
5.981609375000001
20
74.26868125
30
0
0
VERTEX
8
0
10
6.021903125000001
20
74.22028125
30
0
42
0.47873185359871023
0
VERTEX
8
0
10
7.0090031250000004
20
74.28557500000001
30
0
0
VERTEX
8
0
10
7.014940625
20
74.295
30
0
0
VERTEX
8
0
10
14.743490625000002
20
74.295
30
0
0
VERTEX
8
0
10
14.908590625
20
74.1299
30
0
0
VERTEX
8
0
10
15.571409375
20
74.1299
30
0
0
VERTEX
8
0
10
15.736509375
20
74.295
30
0
0
VERTEX
8
0
10
28.026781250000003
20
74.295
30
0
0
VERTEX
8
0
10
28.055781250000003
20
74.275621875
30
0
42
0.12333821538885169
0
VERTEX
8
0
10
28.410565625
20
74.168
30
0
0
VERTEX
8
0
10
30.009434375
20
74.168
30
0
0
VERTEX
8
0
10
30.083943750000003
20
74.1753375
30
0
42
0.09849124195758484
0
VERTEX
8
0
10
30.364218750000003
20
74.275621875
30
0
0
VERTEX
8
0
10
30.393218750000003
20
74.295
30
0
0
VERTEX
8
0
10
34.37678125
20
74.295
30
0
0
VERTEX
8
0
10
34.405781250000004
20
74.275621875
30
0
42
0.12333821538885169
0
VERTEX
8
0
10
34.760565625
20
74.168
30
0
0
VERTEX
8
0
10
36.359434375
20
74.168
30
0
0
VERTEX
8
0
10
36.433943750000005
20
74.1753375
30
0
42
0.09849124195758484
0
VERTEX
8
0
10
36.71421875
20
74.275621875
30
0
0
VERTEX
8
0
10
36.743218750000004
20
74.295
30
0
0
VERTEX
8
0
10
40.72678125
20
74.295
30
0
0
VERTEX
8
0
10
40.755781250000005
20
74.275621875
30
0
42
0.12333821538885169
0
VERTEX
8
0
10
41.110565625
20
74.168
30
0
0
VERTEX
8
0
10
42.709434375
20
74.168
30
0
0
VERTEX
8
0
10
42.78394375
20
74.1753375
30
0
42
0.09849124195758484
0
VERTEX
8
0
10
43.06421875
20
74.275621875
30
0
0
VERTEX
8
0
10
43.093218750000005
20
74.295
30
0
0
VERTEX
8
0
10
47.07678125
20
74.295
30
0
0
VERTEX
8
0
10
47.10578125
20
74.275621875
30
0
42
0.12333821538885169
0
VERTEX
8
0
10
47.460565625
20
74.168
30
0
0
VERTEX
8
0
10
49.059434375
20
74.168
30
0
0
VERTEX
8
0
10
49.13394375
20
74.1753375
30
0
42
0.09849124195758484
0
VERTEX
8
0
10
49.41421875
20
74.275621875
30
0
0
VERTEX
8
0
10
49.44321875
20
74.295
30
0
0
VERTEX
8
0
10
53.426781250000005
20
74.295
30
0
0
VERTEX
8
0
10
53.45578125
20
74.275621875
30
0
42
0.12333821538885169
0
VERTEX
8
0
10
53.810565625
20
74.168
30
0
0
VERTEX
8
0
10
55.409434375000004
20
74.168
30
0
0
VERTEX
8
0
10
55.48394375
20
74.1753375
30
0
42
0.09849124195758484
0
VERTEX
8
0
10
55.764218750000005
20
74.275621875
30
0
0
VERTEX
8
0
10
55.79321875
20
74.295
30
0
0
VERTEX
8
0
10
59.776781250000006
20
74.295
30
0
0
VERTEX
8
0
10
59.80578125
20
74.275621875
30
0
42
0.12333821538885169
0
VERTEX
8
0
10
60.160565625000004
20
74.168
30
0
0
VERTEX
8
0
10
61.759434375000005
20
74.168
30
0
0
VERTEX
8
0
10
61.83394375
20
74.1753375
30
0
42
0.09849124195758484
0
VERTEX
8
0
10
62.114218750000006
20
74.275621875
30
0
0
VERTEX
8
0
10
62.14321875
20
74.295
30
0
0
VERTEX
8
0
10
89.906975
20
74.295
30
0
0
VERTEX
8
0
10
94.61500000000001
20
69.58697500000001
30
0
0
VERTEX
8
0
10
94.61500000000001
20
38.363025
30
0
0
VERTEX
8
0
10
86.096975
20
29.845000000000002
30
0
0
VERTEX
8
0
10
80.518
20
29.845000000000002
30
0
0
VERTEX
8
0
10
80.518
20
60.749581250000006
30
0
0
VERTEX
8
0
10
80.77921875
20
61.0108
30
0
0
VERTEX
8
0
10
81.5086
20
61.0108
30
0
0
VERTEX
8
0
10
81.5086
20
60.719365625
30
0
0
VERTEX
8
0
10
81.5159375
20
60.644856250000004
30
0
42
0.9063472543261978
0
VERTEX
8
0
10
83.0326
20
60.719365625
30
0
0
VERTEX
8
0
10
83.0326
20
62.318234375
30
0
0
VERTEX
8
0
10
83.02526250000001
20
62.39274375
30
0
42
0.9063472543261978
0
VERTEX
8
0
10
81.5086
20
62.318234375
30
0
0
VERTEX
8
0
10
81.5086
20
62.0268
30
0
0
VERTEX
8
0
10
80.56880000000001
20
62.0268
30
0
0
VERTEX
8
0
10
80.54741875
20
62.0256125
30
0
0
VERTEX
8
0
10
80.526003125
20
62.02499375
30
0
42
0.13956369316960346
0
VERTEX
8
0
10
80.265825
20
61.9265625
30
0
0
VERTEX
8
0
10
80.26159687500001
20
61.9229125
30
0
0
VERTEX
8
0
10
80.25509375
20
61.918365625
30
0
0
VERTEX
8
0
10
80.2127875
20
61.881178125000005
30
0
0
VERTEX
8
0
10
80.21104375
20
61.879265625
30
0
0
VERTEX
8
0
10
80.209590625
20
61.878009375000005
30
0
0
VERTEX
8
0
10
79.650790625
20
61.319209375
30
0
0
VERTEX
8
0
10
79.636521875
20
61.3032625
30
0
0
VERTEX
8
0
10
79.621803125
20
61.28766875
30
0
42
0.1395618413384444
0
VERTEX
8
0
10
79.50743125000001
20
61.034096875
30
0
0
VERTEX
8
0
10
79.507021875
20
61.02850625
30
0
0
VERTEX
8
0
10
79.505640625
20
61.020709375
30
0
0
VERTEX
8
0
10
79.50201875
20
60.964503125
30
0
0
VERTEX
8
0
10
79.50214062500001
20
60.961906250000006
30
0
0
VERTEX
8
0
10
79.50200000000001
20
60.96
30
0
0
VERTEX
8
0
10
79.50200000000001
20
29.845000000000002
30
0
0
VERTEX
8
0
10
49.53
20
29.845000000000002
30
0
0
VERTEX
8
0
10
49.5220375
20
29.844606250000002
30
0
0
VERTEX
8
0
10
49.514078125000005
20
29.844800000000003
30
0
42
0.17540035433691983
0
VERTEX
8
0
10
49.111475000000006
20
29.687559375000003
30
0
0
VERTEX
8
0
10
49.0809875
20
29.659012500000003
30
0
0
VERTEX
8
0
10
42.730987500000005
20
23.3090125
30
0
0
VERTEX
8
0
10
42.725646875
20
23.3031125
30
0
0
VERTEX
8
0
10
42.71986875
20
23.2976125
30
0
42
0.17539971942470112
0
VERTEX
8
0
10
42.546375000000005
20
22.90174375
30
0
0
VERTEX
8
0
10
42.545
20
22.86
30
0
0
VERTEX
8
0
10
42.545
20
16.383
30
0
0
VERTEX
8
0
10
42.5452625
20
16.37770625
30
0
0
VERTEX
8
0
10
42.5450875
20
16.372384375
30
0
42
0.177554981529382
0
VERTEX
8
0
10
42.702440625
20
15.964475
30
0
0
VERTEX
8
0
10
42.730987500000005
20
15.9339875
30
0
0
VERTEX
8
0
10
45.085
20
13.579975000000001
30
0
0
VERTEX
8
0
10
45.085
20
11.34321875
30
0
0
VERTEX
8
0
10
45.065621875000005
20
11.31421875
30
0
42
0.12333821538885169
0
VERTEX
8
0
10
44.958000000000006
20
10.959434375
30
0
0
VERTEX
8
0
10
44.958000000000006
20
9.360565625000001
30
0
0
VERTEX
8
0
10
44.965337500000004
20
9.28605625
30
0
42
0.9063472543261978
0
VERTEX
8
0
10
46.482
20
9.360565625000001
30
0
0
VERTEX
8
0
10
46.482
20
10.959434375
30
0
0
VERTEX
8
0
10
46.4746625
20
11.03394375
30
0
42
0.09849124195758484
0
VERTEX
8
0
10
46.374378125
20
11.31421875
30
0
0
VERTEX
8
0
10
46.355000000000004
20
11.34321875
30
0
0
VERTEX
8
0
10
46.355000000000004
20
13.843
30
0
0
VERTEX
8
0
10
46.35460625
20
13.850962500000001
30
0
0
VERTEX
8
0
10
46.354800000000004
20
13.858921875
30
0
42
0.018034391905832448
0
VERTEX
8
0
10
46.351878125
20
13.9059
30
0
0
VERTEX
8
0
10
46.351471875
20
13.9086125
30
0
0
VERTEX
8
0
10
46.35325625
20
13.9229625
30
0
42
0.2010852676425291
0
VERTEX
8
0
10
46.197559375000004
20
14.388525000000001
30
0
0
VERTEX
8
0
10
46.1690125
20
14.419012500000001
30
0
0
VERTEX
8
0
10
43.815000000000005
20
16.773025
30
0
0
VERTEX
8
0
10
43.815000000000005
20
22.596975
30
0
0
VERTEX
8
0
10
49.793025
20
28.575000000000003
30
0
0
VERTEX
8
0
10
86.36
20
28.575000000000003
30
0
0
SEQEND
0
POLYLINE
66
1
8
1_copper
10
0.0
20
0.0
30
0.0
70
1
0
VERTEX
8
0
10
77.86134375
20
46.032137500000005
30
0
42
0.3578057741447831
0
VERTEX
8
0
10
78.51140000000001
20
46.749365625
30
0
0
VERTEX
8
0
10
78.51140000000001
20
48.348234375000004
30
0
0
VERTEX
8
0
10
78.5040625
20
48.42274375
30
0
42
0.9063472543261978
0
VERTEX
8
0
10
76.98740000000001
20
48.348234375000004
30
0
0
VERTEX
8
0
10
76.98740000000001
20
46.749365625
30
0
0
VERTEX
8
0
10
76.9947375
20
46.674856250000005
30
0
42
0.38574240611503685
0
VERTEX
8
0
10
77.786834375
20
46.0248
30
0
0
SEQEND
0
POLYLINE
66
1
8
16_copper
10
0.0
20
0.0
30
0.0
70
1
0
VERTEX
8
0
10
77.86134375
20
46.032137500000005
30
0
42
0.3578057741447831
0
VERTEX
8
0
10
78.51140000000001
20
46.749365625
30
0
0
VERTEX
8
0
10
78.51140000000001
20
48.348234375000004
30
0
0
VERTEX
8
0
10
78.5040625
20
48.42274375
30
0
42
0.9063472543261978
0
VERTEX
8
0
10
76.98740000000001
20
48.348234375000004
30
0
0
VERTEX
8
0
10
76.98740000000001
20
48.183800000000005
30
0
0
VERTEX
8
0
10
74.634225
20
48.183800000000005
30
0
0
VERTEX
8
0
10
66.4890125
20
56.329012500000005
30
0
0
VERTEX
8
0
10
66.4831125
20
56.334353125
30
0
0
VERTEX
8
0
10
66.4776125
20
56.340131250000006
30
0
42
0.17539971942470112
0
VERTEX
8
0
10
66.08174375
20
56.513625000000005
30
0
0
VERTEX
8
0
10
66.04
20
56.515
30
0
0
VERTEX
8
0
10
59.953025000000004
20
56.515
30
0
0
VERTEX
8
0
10
56.515
20
59.953025000000004
30
0
0
VERTEX
8
0
10
56.515
20
64.897
30
0
0
VERTEX
8
0
10
56.511878125
20
64.9599
30
0
42
0.9207235343935894
0
VERTEX
8
0
10
55.246375
20
64.93874375
30
0
0
VERTEX
8
0
10
55.245000000000005
20
64.897
30
0
0
VERTEX
8
0
10
55.245000000000005
20
59.690000000000005
30
0
0
VERTEX
8
0
10
55.245393750000005
20
59.6820375
30
0
0
VERTEX
8
0
10
55.245200000000004
20
59.674078125
30
0
42
0.17540035433691983
0
VERTEX
8
0
10
55.402440625000004
20
59.271475
30
0
0
VERTEX
8
0
10
55.4309875
20
59.2409875
30
0
0
VERTEX
8
0
10
59.2409875
20
55.4309875
30
0
0
VERTEX
8
0
10
59.2468875
20
55.425646875000005
30
0
0
VERTEX
8
0
10
59.252387500000005
20
55.41986875
30
0
42
0.17539971942470112
0
VERTEX
8
0
10
59.64825625
20
55.246375
30
0
0
VERTEX
8
0
10
59.690000000000005
20
55.245000000000005
30
0
0
VERTEX
8
0
10
65.77697500000001
20
55.245000000000005
30
0
0
VERTEX
8
0
10
73.9221875
20
47.099787500000005
30
0
0
VERTEX
8
0
10
73.9280875
20
47.094446875
30
0
0
VERTEX
8
0
10
73.9335875
20
47.088668750000004
30
0
42
0.17539971942470112
0
VERTEX
8
0
10
74.32945625
20
46.915175000000005
30
0
0
VERTEX
8
0
10
74.3712
20
46.9138
30
0
0
VERTEX
8
0
10
76.98740000000001
20
46.9138
30
0
0
VERTEX
8
0
10
76.98740000000001
20
46.749365625
30
0
42
0.4142135623730951
0
VERTEX
8
0
10
77.786834375
20
46.0248
30
0
0
SEQEND
0
POLYLINE
66
1
8
1_copper
10
0.0
20
0.0
30
0.0
70
1
0
VERTEX
8
0
10
82.38254375000001
20
66.5045375
30
0
42
0.3578057741447831
0
VERTEX
8
0
10
83.0326
20
67.221765625
30
0
0
VERTEX
8
0
10
83.0326
20
68.820634375
30
0
0
VERTEX
8
0
10
83.02526250000001
20
68.89514375
30
0
42
0.9063472543261978
0
VERTEX
8
0
10
81.5086
20
68.820634375
30
0
0
VERTEX
8
0
10
81.5086
20
67.221765625
30
0
0
VERTEX
8
0
10
81.5159375
20
67.14725625
30
0
42
0.38574240611503685
0
VERTEX
8
0
10
82.308034375
20
66.4972
30
0
0
SEQEND
0
POLYLINE
66
1
8
16_copper
10
0.0
20
0.0
30
0.0
70
1
0
VERTEX
8
0
10
85.16345625000001
20
61.5992625
30
0
42
0.36193552744711505
0
VERTEX
8
0
10
85.723625
20
62.18825625
30
0
0
VERTEX
8
0
10
85.72500000000001
20
62.230000000000004
30
0
0
VERTEX
8
0
10
85.72500000000001
20
67.31
30
0
0
VERTEX
8
0
10
85.72460625000001
20
67.31796250000001
30
0
0
VERTEX
8
0
10
85.7248
20
67.325921875
30
0
42
0.17540035433691983
0
VERTEX
8
0
10
85.567559375
20
67.728525
30
0
0
VERTEX
8
0
10
85.5390125
20
67.7590125
30
0
0
VERTEX
8
0
10
84.82781250000001
20
68.4702125
30
0
0
VERTEX
8
0
10
84.82191250000001
20
68.475553125
30
0
0
VERTEX
8
0
10
84.8164125
20
68.48133125
30
0
42
0.17539971942470112
0
VERTEX
8
0
10
84.42054375000001
20
68.654825
30
0
0
VERTEX
8
0
10
84.3788
20
68.6562
30
0
0
VERTEX
8
0
10
83.0326
20
68.6562
30
0
0
VERTEX
8
0
10
83.0326
20
68.820634375
30
0
42
0.9520795017710559
0
VERTEX
8
0
10
81.5086
20
68.820634375
30
0
0
VERTEX
8
0
10
81.5086
20
67.221765625
30
0
0
VERTEX
8
0
10
81.5159375
20
67.14725625
30
0
42
0.9063472543261978
0
VERTEX
8
0
10
83.0326
20
67.221765625
30
0
0
VERTEX
8
0
10
83.0326
20
67.3862
30
0
0
VERTEX
8
0
10
84.115775
20
67.3862
30
0
0
VERTEX
8
0
10
84.455
20
67.046975
30
0
0
VERTEX
8
0
10
84.455
20
62.230000000000004
30
0
0
VERTEX
8
0
10
84.458121875
20
62.167100000000005
30
0
42
0.3902513642870399
0
VERTEX
8
0
10
85.100615625
20
61.595087500000005
30
0
0
SEQEND
0
POLYLINE
66
1
8
1_copper
10
0.0
20
0.0
30
0.0
70
1
0
VERTEX
8
0
10
82.38254375000001
20
46.032137500000005
30
0
42
0.3578057741447831
0
VERTEX
8
0
10
83.0326
20
46.749365625
30
0
0
VERTEX
8
0
10
83.0326
20
48.348234375000004
30
0
0
VERTEX
8
0
10
83.02526250000001
20
48.42274375
30
0
42
0.9063472543261978
0
VERTEX
8
0
10
81.5086
20
48.348234375000004
30
0
0
VERTEX
8
0
10
81.5086
20
46.749365625
30
0
0
VERTEX
8
0
10
81.5159375
20
46.674856250000005
30
0
42
0.38574240611503685
0
VERTEX
8
0
10
82.308034375
20
46.0248
30
0
0
SEQEND
0
POLYLINE
66
1
8
16_copper
10
0.0
20
0.0
30
0.0
70
1
0
VERTEX
8
0
10
85.721878125
20
58.4829
30
0
42
0.9207235343935894
0
VERTEX
8
0
10
84.45637500000001
20
58.461743750000004
30
0
0
VERTEX
8
0
10
84.455
20
58.42
30
0
0
VERTEX
8
0
10
84.455
20
50.631225
30
0
0
VERTEX
8
0
10
82.73730937500001
20
48.913534375000005
30
0
0
VERTEX
8
0
10
82.72506875
20
48.923581250000005
30
0
42
0.5993767744791428
0
VERTEX
8
0
10
81.5086
20
48.348234375000004
30
0
0
VERTEX
8
0
10
81.5086
20
46.749365625
30
0
0
VERTEX
8
0
10
81.5159375
20
46.674856250000005
30
0
42
0.9063472543261978
0
VERTEX
8
0
10
83.0326
20
46.749365625
30
0
0
VERTEX
8
0
10
83.0326
20
47.412775
30
0
0
VERTEX
8
0
10
85.5390125
20
49.9191875
30
0
0
VERTEX
8
0
10
85.544353125
20
49.925087500000004
30
0
0
VERTEX
8
0
10
85.55013125
20
49.9305875
30
0
42
0.17539971942470112
0
VERTEX
8
0
10
85.723625
20
50.32645625
30
0
0
VERTEX
8
0
10
85.72500000000001
20
50.3682
30
0
0
VERTEX
8
0
10
85.72500000000001
20
58.42
30
0
0
SEQEND
0
POLYLINE
66
1
8
1_copper
10
0.0
20
0.0
30
0.0
70
1
0
VERTEX
8
0
10
61.07194375
20
8.643337500000001
30
0
42
0.3578057741447831
0
VERTEX
8
0
10
61.722
20
9.360565625000001
30
0
0
VERTEX
8
0
10
61.722
20
10.959434375
30
0
0
VERTEX
8
0
10
61.7146625
20
11.03394375
30
0
42
0.9063472543261978
0
VERTEX
8
0
10
60.198
20
10.959434375
30
0
0
VERTEX
8
0
10
60.198
20
9.360565625000001
30
0
0
VERTEX
8
0
10
60.205337500000006
20
9.28605625
30
0
42
0.38574240611503685
0
VERTEX
8
0
10
60.997434375000005
20
8.636000000000001
30
0
0
SEQEND
0
POLYLINE
66
1
8
16_copper
10
0.0
20
0.0
30
0.0
70
1
0
VERTEX
8
0
10
61.07194375
20
8.643337500000001
30
0
42
0.3578057741447831
0
VERTEX
8
0
10
61.722
20
9.360565625000001
30
0
0
VERTEX
8
0
10
61.722
20
10.023975
30
0
0
VERTEX
8
0
10
63.9490125
20
12.2509875
30
0
0
VERTEX
8
0
10
63.954353125000004
20
12.256887500000001
30
0
0
VERTEX
8
0
10
63.96013125
20
12.2623875
30
0
42
0.17539971942470112
0
VERTEX
8
0
10
64.13362500000001
20
12.65825625
30
0
0
VERTEX
8
0
10
64.135
20
12.700000000000001
30
0
0
VERTEX
8
0
10
64.135
20
16.637
30
0
0
VERTEX
8
0
10
64.131878125
20
16.6999
30
0
42
0.9207235343935894
0
VERTEX
8
0
10
62.866375000000005
20
16.678743750000002
30
0
0
VERTEX
8
0
10
62.865
20
16.637
30
0
0
VERTEX
8
0
10
62.865
20
12.963025
30
0
0
VERTEX
8
0
10
61.426709375
20
11.524734375000001
30
0
0
VERTEX
8
0
10
61.414468750000005
20
11.53478125
30
0
42
0.5993767744791428
0
VERTEX
8
0
10
60.198
20
10.959434375
30
0
0
VERTEX
8
0
10
60.198
20
9.360565625000001
30
0
0
VERTEX
8
0
10
60.205337500000006
20
9.28605625
30
0
42
0.38574240611503685
0
VERTEX
8
0
10
60.997434375000005
20
8.636000000000001
30
0
0
SEQEND
0
POLYLINE
66
1
8
1_copper
10
0.0
20
0.0
30
0.0
70
1
0
VERTEX
8
0
10
58.53194375
20
8.643337500000001
30
0
42
0.3578057741447831
0
VERTEX
8
0
10
59.182
20
9.360565625000001
30
0
0
VERTEX
8
0
10
59.182
20
10.959434375
30
0
0
VERTEX
8
0
10
59.174662500000004
20
11.03394375
30
0
42
0.9063472543261978
0
VERTEX
8
0
10
57.658
20
10.959434375
30
0
0
VERTEX
8
0
10
57.658
20
9.360565625000001
30
0
0
VERTEX
8
0
10
57.6653375
20
9.28605625
30
0
42
0.38574240611503685
0
VERTEX
8
0
10
58.457434375000005
20
8.636000000000001
30
0
0
SEQEND
0
POLYLINE
66
1
8
16_copper
10
0.0
20
0.0
30
0.0
70
1
0
VERTEX
8
0
10
58.53194375
20
8.643337500000001
30
0
42
0.3578057741447831
0
VERTEX
8
0
10
59.182
20
9.360565625000001
30
0
0
VERTEX
8
0
10
59.182
20
10.959434375
30
0
0
VERTEX
8
0
10
59.174662500000004
20
11.03394375
30
0
42
0.04912651678546234
0
VERTEX
8
0
10
59.138321875
20
11.179018750000001
30
0
0
VERTEX
8
0
10
59.117446875000006
20
11.229421875
30
0
0
VERTEX
8
0
10
61.4090125
20
13.5209875
30
0
0
VERTEX
8
0
10
61.414353125000005
20
13.5268875
30
0
0
VERTEX
8
0
10
61.420131250000004
20
13.5323875
30
0
42
0.17539971942470112
0
VERTEX
8
0
10
61.593625
20
13.92825625
30
0
0
VERTEX
8
0
10
61.595000000000006
20
13.97
30
0
0
VERTEX
8
0
10
61.595000000000006
20
16.383
30
0
0
VERTEX
8
0
10
61.591878125
20
16.4459
30
0
42
0.9207235343935894
0
VERTEX
8
0
10
60.326375000000006
20
16.42474375
30
0
0
VERTEX
8
0
10
60.325
20
16.383
30
0
0
VERTEX
8
0
10
60.325
20
14.233025000000001
30
0
0
VERTEX
8
0
10
57.9709875
20
11.8790125
30
0
0
VERTEX
8
0
10
57.965646875000004
20
11.873112500000001
30
0
0
VERTEX
8
0
10
57.959868750000005
20
11.8676125
30
0
42
0.17539971942470112
0
VERTEX
8
0
10
57.786375
20
11.47174375
30
0
0
VERTEX
8
0
10
57.785000000000004
20
11.43
30
0
0
VERTEX
8
0
10
57.785000000000004
20
11.34321875
30
0
0
VERTEX
8
0
10
57.765621875
20
11.31421875
30
0
0
VERTEX
8
0
10
57.730328125
20
11.248190625000001
30
0
42
0.09849153363520471
0
VERTEX
8
0
10
57.658
20
10.959434375
30
0
0
VERTEX
8
0
10
57.658
20
9.360565625000001
30
0
0
VERTEX
8
0
10
57.6653375
20
9.28605625
30
0
42
0.38574240611503685
0
VERTEX
8
0
10
58.457434375000005
20
8.636000000000001
30
0
0
SEQEND
0
POLYLINE
66
1
8
1_copper
10
0.0
20
0.0
30
0.0
70
1
0
VERTEX
8
0
10
55.991943750000004
20
8.643337500000001
30
0
42
0.3578057741447831
0
VERTEX
8
0
10
56.642
20
9.360565625000001
30
0
0
VERTEX
8
0
10
56.642
20
10.959434375
30
0
0
VERTEX
8
0
10
56.634662500000005
20
11.03394375
30
0
42
0.9063472543261978
0
VERTEX
8
0
10
55.118
20
10.959434375
30
0
0
VERTEX
8
0
10
55.118
20
9.360565625000001
30
0
0
VERTEX
8
0
10
55.1253375
20
9.28605625
30
0
42
0.38574240611503685
0
VERTEX
8
0
10
55.917434375
20
8.636000000000001
30
0
0
SEQEND
0
POLYLINE
66
1
8
16_copper
10
0.0
20
0.0
30
0.0
70
1
0
VERTEX
8
0
10
55.991943750000004
20
8.643337500000001
30
0
42
0.3578057741447831
0
VERTEX
8
0
10
56.642
20
9.360565625000001
30
0
0
VERTEX
8
0
10
56.642
20
10.959434375
30
0
0
VERTEX
8
0
10
56.634662500000005
20
11.03394375
30
0
42
0.04912651678546234
0
VERTEX
8
0
10
56.598321875
20
11.179018750000001
30
0
0
VERTEX
8
0
10
56.577446875
20
11.229421875
30
0
0
VERTEX
8
0
10
58.869012500000004
20
13.5209875
30
0
0
VERTEX
8
0
10
58.874353125000006
20
13.5268875
30
0
0
VERTEX
8
0
10
58.880131250000005
20
13.5323875
30
0
42
0.17539971942470112
0
VERTEX
8
0
10
59.053625000000004
20
13.92825625
30
0
0
VERTEX
8
0
10
59.055
20
13.97
30
0
0
VERTEX
8
0
10
59.055
20
16.637
30
0
0
VERTEX
8
0
10
59.051878125
20
16.6999
30
0
42
0.9207235343935894
0
VERTEX
8
0
10
57.786375
20
16.678743750000002
30
0
0
VERTEX
8
0
10
57.785000000000004
20
16.637
30
0
0
VERTEX
8
0
10
57.785000000000004
20
14.233025000000001
30
0
0
VERTEX
8
0
10
55.4309875
20
11.8790125
30
0
0
VERTEX
8
0
10
55.425646875000005
20
11.873112500000001
30
0
0
VERTEX
8
0
10
55.41986875
20
11.8676125
30
0
42
0.17539971942470112
0
VERTEX
8
0
10
55.246375
20
11.47174375
30
0
0
VERTEX
8
0
10
55.245000000000005
20
11.43
30
0
0
VERTEX
8
0
10
55.245000000000005
20
11.34321875
30
0
0
VERTEX
8
0
10
55.225621875
20
11.31421875
30
0
0
VERTEX
8
0
10
55.190328125
20
11.248190625000001
30
0
42
0.09849153363520471
0
VERTEX
8
0
10
55.118
20
10.959434375
30
0
0
VERTEX
8
0
10
55.118
20
9.360565625000001
30
0
0
VERTEX
8
0
10
55.1253375
20
9.28605625
30
0
42
0.38574240611503685
0
VERTEX
8
0
10
55.917434375
20
8.636000000000001
30
0
0
SEQEND
0
POLYLINE
66
1
8
1_copper
10
0.0
20
0.0
30
0.0
70
1
0
VERTEX
8
0
10
53.451943750000005
20
8.643337500000001
30
0
42
0.3578057741447831
0
VERTEX
8
0
10
54.102000000000004
20
9.360565625000001
30
0
0
VERTEX
8
0
10
54.102000000000004
20
10.959434375
30
0
0
VERTEX
8
0
10
54.094662500000005
20
11.03394375
30
0
42
0.9063472543261978
0
VERTEX
8
0
10
52.578
20
10.959434375
30
0
0
VERTEX
8
0
10
52.578
20
9.360565625000001
30
0
0
VERTEX
8
0
10
52.5853375
20
9.28605625
30
0
42
0.38574240611503685
0
VERTEX
8
0
10
53.377434375
20
8.636000000000001
30
0
0
SEQEND
0
POLYLINE
66
1
8
16_copper
10
0.0
20
0.0
30
0.0
70
1
0
VERTEX
8
0
10
52.8909875
20
11.8790125
30
0
42
0.18186941841848478
0
VERTEX
8
0
10
52.706375
20
11.47174375
30
0
0
VERTEX
8
0
10
52.705000000000005
20
11.43
30
0
0
VERTEX
8
0
10
52.705000000000005
20
11.34321875
30
0
0
VERTEX
8
0
10
52.685621875
20
11.31421875
30
0
0
VERTEX
8
0
10
52.650328125
20
11.248190625000001
30
0
42
0.09849153363520471
0
VERTEX
8
0
10
52.578
20
10.959434375
30
0
0
VERTEX
8
0
10
52.578
20
9.360565625000001
30
0
0
VERTEX
8
0
10
52.5853375
20
9.28605625
30
0
42
0.9063472543261978
0
VERTEX
8
0
10
54.102000000000004
20
9.360565625000001
30
0
0
VERTEX
8
0
10
54.102000000000004
20
10.959434375
30
0
0
VERTEX
8
0
10
54.094662500000005
20
11.03394375
30
0
42
0.04912651678546234
0
VERTEX
8
0
10
54.058321875000004
20
11.179018750000001
30
0
0
VERTEX
8
0
10
54.037446875
20
11.229421875
30
0
0
VERTEX
8
0
10
56.329012500000005
20
13.5209875
30
0
0
VERTEX
8
0
10
56.334353125
20
13.5268875
30
0
0
VERTEX
8
0
10
56.340131250000006
20
13.5323875
30
0
42
0.17539971942470112
0
VERTEX
8
0
10
56.513625000000005
20
13.92825625
30
0
0
VERTEX
8
0
10
56.515
20
13.97
30
0
0
VERTEX
8
0
10
56.515
20
16.383
30
0
0
VERTEX
8
0
10
56.511878125
20
16.4459
30
0
42
0.9207235343935894
0
VERTEX
8
0
10
55.246375
20
16.42474375
30
0
0
VERTEX
8
0
10
55.245000000000005
20
16.383
30
0
0
VERTEX
8
0
10
55.245000000000005
20
14.233025000000001
30
0
0
SEQEND
0
POLYLINE
66
1
8
1_copper
10
0.0
20
0.0
30
0.0
70
1
0
VERTEX
8
0
10
50.91194375
20
8.643337500000001
30
0
42
0.3578057741447831
0
VERTEX
8
0
10
51.562000000000005
20
9.360565625000001
30
0
0
VERTEX
8
0
10
51.562000000000005
20
10.959434375
30
0
0
VERTEX
8
0
10
51.5546625
20
11.03394375
30
0
42
0.9063472543261978
0
VERTEX
8
0
10
50.038000000000004
20
10.959434375
30
0
0
VERTEX
8
0
10
50.038000000000004
20
9.360565625000001
30
0
0
VERTEX
8
0
10
50.0453375
20
9.28605625
30
0
42
0.38574240611503685
0
VERTEX
8
0
10
50.837434375
20
8.636000000000001
30
0
0
SEQEND
0
POLYLINE
66
1
8
16_copper
10
0.0
20
0.0
30
0.0
70
1
0
VERTEX
8
0
10
50.91194375
20
8.643337500000001
30
0
42
0.3578057741447831
0
VERTEX
8
0
10
51.562000000000005
20
9.360565625000001
30
0
0
VERTEX
8
0
10
51.562000000000005
20
10.959434375
30
0
0
VERTEX
8
0
10
51.5546625
20
11.03394375
30
0
42
0.09849124195758484
0
VERTEX
8
0
10
51.454378125000005
20
11.31421875
30
0
0
VERTEX
8
0
10
51.435
20
11.34321875
30
0
0
VERTEX
8
0
10
51.435
20
12.436975
30
0
0
VERTEX
8
0
10
53.789012500000005
20
14.7909875
30
0
0
VERTEX
8
0
10
53.794353125
20
14.7968875
30
0
0
VERTEX
8
0
10
53.80013125
20
14.8023875
30
0
42
0.17539971942470112
0
VERTEX
8
0
10
53.973625000000006
20
15.19825625
30
0
0
VERTEX
8
0
10
53.975
20
15.24
30
0
0
VERTEX
8
0
10
53.975
20
16.637
30
0
0
VERTEX
8
0
10
53.971878125
20
16.6999
30
0
42
0.9207235343935894
0
VERTEX
8
0
10
52.706375
20
16.678743750000002
30
0
0
VERTEX
8
0
10
52.705000000000005
20
16.637
30
0
0
VERTEX
8
0
10
52.705000000000005
20
15.503025000000001
30
0
0
VERTEX
8
0
10
50.3509875
20
13.149012500000001
30
0
0
VERTEX
8
0
10
50.345646875
20
13.1431125
30
0
0
VERTEX
8
0
10
50.33986875
20
13.137612500000001
30
0
42
0.17539971942470112
0
VERTEX
8
0
10
50.166375
20
12.741743750000001
30
0
0
VERTEX
8
0
10
50.165
20
12.700000000000001
30
0
0
VERTEX
8
0
10
50.165
20
11.34321875
30
0
0
VERTEX
8
0
10
50.145621875
20
11.31421875
30
0
42
0.12333821538885169
0
VERTEX
8
0
10
50.038000000000004
20
10.959434375
30
0
0
VERTEX
8
0
10
50.038000000000004
20
9.360565625000001
30
0
0
VERTEX
8
0
10
50.0453375
20
9.28605625
30
0
42
0.38574240611503685
0
VERTEX
8
0
10
50.837434375
20
8.636000000000001
30
0
0
SEQEND
0
POLYLINE
66
1
8
1_copper
10
0.0
20
0.0
30
0.0
70
1
0
VERTEX
8
0
10
48.37194375
20
8.643337500000001
30
0
42
0.3578057741447831
0
VERTEX
8
0
10
49.022000000000006
20
9.360565625000001
30
0
0
VERTEX
8
0
10
49.022000000000006
20
10.959434375
30
0
0
VERTEX
8
0
10
49.0146625
20
11.03394375
30
0
42
0.9063472543261978
0
VERTEX
8
0
10
47.498000000000005
20
10.959434375
30
0
0
VERTEX
8
0
10
47.498000000000005
20
9.360565625000001
30
0
0
VERTEX
8
0
10
47.5053375
20
9.28605625
30
0
42
0.38574240611503685
0
VERTEX
8
0
10
48.297434375
20
8.636000000000001
30
0
0
SEQEND
0
POLYLINE
66
1
8
16_copper
10
0.0
20
0.0
30
0.0
70
1
0
VERTEX
8
0
10
48.37194375
20
8.643337500000001
30
0
42
0.3578057741447831
0
VERTEX
8
0
10
49.022000000000006
20
9.360565625000001
30
0
0
VERTEX
8
0
10
49.022000000000006
20
10.959434375
30
0
0
VERTEX
8
0
10
49.0146625
20
11.03394375
30
0
42
0.09849124195758484
0
VERTEX
8
0
10
48.914378125
20
11.31421875
30
0
0
VERTEX
8
0
10
48.895
20
11.34321875
30
0
0
VERTEX
8
0
10
48.895
20
14.976975000000001
30
0
0
VERTEX
8
0
10
49.793025
20
15.875
30
0
0
VERTEX
8
0
10
50.4202875
20
15.875
30
0
0
VERTEX
8
0
10
50.448315625
20
15.854281250000001
30
0
42
0.8759054465192113
0
VERTEX
8
0
10
51.277559375
20
16.801525
30
0
0
VERTEX
8
0
10
51.2490125
20
16.8320125
30
0
0
VERTEX
8
0
10
51.122012500000004
20
16.9590125
30
0
42
0.18186941841848478
0
VERTEX
8
0
10
50.714743750000004
20
17.143625
30
0
0
VERTEX
8
0
10
50.673
20
17.145
30
0
0
VERTEX
8
0
10
49.53
20
17.145
30
0
0
VERTEX
8
0
10
49.5220375
20
17.144606250000002
30
0
0
VERTEX
8
0
10
49.514078125000005
20
17.1448
30
0
42
0.17540035433691983
0
VERTEX
8
0
10
49.111475000000006
20
16.987559375
30
0
0
VERTEX
8
0
10
49.0809875
20
16.9590125
30
0
0
VERTEX
8
0
10
47.8109875
20
15.6890125
30
0
0
VERTEX
8
0
10
47.805646875
20
15.6831125
30
0
0
VERTEX
8
0
10
47.79986875
20
15.6776125
30
0
42
0.17539971942470112
0
VERTEX
8
0
10
47.626375
20
15.28174375
30
0
0
VERTEX
8
0
10
47.625
20
15.24
30
0
0
VERTEX
8
0
10
47.625
20
11.34321875
30
0
0
VERTEX
8
0
10
47.605621875000004
20
11.31421875
30
0
42
0.12333821538885169
0
VERTEX
8
0
10
47.498000000000005
20
10.959434375
30
0
0
VERTEX
8
0
10
47.498000000000005
20
9.360565625000001
30
0
0
VERTEX
8
0
10
47.5053375
20
9.28605625
30
0
42
0.38574240611503685
0
VERTEX
8
0
10
48.297434375
20
8.636000000000001
30
0
0
SEQEND
0
POLYLINE
66
1
8
1_copper
10
0.0
20
0.0
30
0.0
70
1
0
VERTEX
8
0
10
16.040100000000002
20
72.05859062500001
30
0
0
VERTEX
8
0
10
16.040100000000002
20
72.72140937500001
30
0
0
VERTEX
8
0
10
15.571409375
20
73.1901
30
0
0
VERTEX
8
0
10
14.908590625
20
73.1901
30
0
0
VERTEX
8
0
10
14.439900000000002
20
72.72140937500001
30
0
0
VERTEX
8
0
10
14.439900000000002
20
72.05859062500001
30
0
0
VERTEX
8
0
10
14.908590625
20
71.5899
30
0
0
VERTEX
8
0
10
15.571409375
20
71.5899
30
0
0
SEQEND
0
POLYLINE
66
1
8
1_copper
10
0.0
20
0.0
30
0.0
70
1
0
VERTEX
8
0
10
61.83394375
20
71.6353375
30
0
42
0.9063472543261978
0
VERTEX
8
0
10
61.759434375000005
20
73.152
30
0
0
VERTEX
8
0
10
60.160565625000004
20
73.152
30
0
0
VERTEX
8
0
10
60.086056250000006
20
73.14466250000001
30
0
42
0.9063472543261978
0
VERTEX
8
0
10
60.160565625000004
20
71.628
30
0
0
VERTEX
8
0
10
61.759434375000005
20
71.628
30
0
0
SEQEND
0
POLYLINE
66
1
8
1_copper
10
0.0
20
0.0
30
0.0
70
1
0
VERTEX
8
0
10
55.48394375
20
71.6353375
30
0
42
0.9063472543261978
0
VERTEX
8
0
10
55.409434375000004
20
73.152
30
0
0
VERTEX
8
0
10
53.810565625
20
73.152
30
0
0
VERTEX
8
0
10
53.736056250000004
20
73.14466250000001
30
0
42
0.9063472543261978
0
VERTEX
8
0
10
53.810565625
20
71.628
30
0
0
VERTEX
8
0
10
55.409434375000004
20
71.628
30
0
0
SEQEND
0
POLYLINE
66
1
8
1_copper
10
0.0
20
0.0
30
0.0
70
1
0
VERTEX
8
0
10
49.13394375
20
71.6353375
30
0
42
0.9063472543261978
0
VERTEX
8
0
10
49.059434375
20
73.152
30
0
0
VERTEX
8
0
10
47.460565625
20
73.152
30
0
0
VERTEX
8
0
10
47.38605625
20
73.14466250000001
30
0
42
0.9063472543261978
0
VERTEX
8
0
10
47.460565625
20
71.628
30
0
0
VERTEX
8
0
10
49.059434375
20
71.628
30
0
0
SEQEND
0
POLYLINE
66
1
8
1_copper
10
0.0
20
0.0
30
0.0
70
1
0
VERTEX
8
0
10
42.78394375
20
71.6353375
30
0
42
0.9063472543261978
0
VERTEX
8
0
10
42.709434375
20
73.152
30
0
0
VERTEX
8
0
10
41.110565625
20
73.152
30
0
0
VERTEX
8
0
10
41.03605625
20
73.14466250000001
30
0
42
0.9063472543261978
0
VERTEX
8
0
10
41.110565625
20
71.628
30
0
0
VERTEX
8
0
10
42.709434375
20
71.628
30
0
0
SEQEND
0
POLYLINE
66
1
8
1_copper
10
0.0
20
0.0
30
0.0
70
1
0
VERTEX
8
0
10
36.433943750000005
20
71.6353375
30
0
42
0.9063472543261978
0
VERTEX
8
0
10
36.359434375
20
73.152
30
0
0
VERTEX
8
0
10
34.760565625
20
73.152
30
0
0
VERTEX
8
0
10
34.68605625
20
73.14466250000001
30
0
42
0.9063472543261978
0
VERTEX
8
0
10
34.760565625
20
71.628
30
0
0
VERTEX
8
0
10
36.359434375
20
71.628
30
0
0
SEQEND
0
POLYLINE
66
1
8
1_copper
10
0.0
20
0.0
30
0.0
70
1
0
VERTEX
8
0
10
30.083943750000003
20
71.6353375
30
0
42
0.9063472543261978
0
VERTEX
8
0
10
30.009434375
20
73.152
30
0
0
VERTEX
8
0
10
28.410565625
20
73.152
30
0
0
VERTEX
8
0
10
28.336056250000002
20
73.14466250000001
30
0
42
0.9063472543261978
0
VERTEX
8
0
10
28.410565625
20
71.628
30
0
0
VERTEX
8
0
10
30.009434375
20
71.628
30
0
0
SEQEND
0
POLYLINE
66
1
8
1_copper
10
0.0
20
0.0
30
0.0
70
1
0
VERTEX
8
0
10
43.29194375
20
8.643337500000001
30
0
42
0.3578057741447831
0
VERTEX
8
0
10
43.942
20
9.360565625000001
30
0
0
VERTEX
8
0
10
43.942
20
10.959434375
30
0
0
VERTEX
8
0
10
43.9346625
20
11.03394375
30
0
42
0.9063472543261978
0
VERTEX
8
0
10
42.418
20
10.959434375
30
0
0
VERTEX
8
0
10
42.418
20
9.360565625000001
30
0
0
VERTEX
8
0
10
42.425337500000005
20
9.28605625
30
0
42
0.38574240611503685
0
VERTEX
8
0
10
43.217434375
20
8.636000000000001
30
0
0
SEQEND
0
POLYLINE
66
1
8
16_copper
10
0.0
20
0.0
30
0.0
70
1
0
VERTEX
8
0
10
38.73460625
20
22.8679625
30
0
0
VERTEX
8
0
10
38.7348
20
22.875921875
30
0
42
0.17540035433691983
0
VERTEX
8
0
10
38.577559375
20
23.278525000000002
30
0
0
VERTEX
8
0
10
38.5490125
20
23.3090125
30
0
0
VERTEX
8
0
10
25.8490125
20
36.009012500000004
30
0
0
VERTEX
8
0
10
25.8431125
20
36.014353125
30
0
0
VERTEX
8
0
10
25.837612500000002
20
36.02013125
30
0
42
0.17539971942470112
0
VERTEX
8
0
10
25.44174375
20
36.193625000000004
30
0
0
VERTEX
8
0
10
25.400000000000002
20
36.195
30
0
0
VERTEX
8
0
10
14.233025000000001
20
36.195
30
0
0
VERTEX
8
0
10
10.795
20
39.633025
30
0
0
VERTEX
8
0
10
10.795
20
67.046975
30
0
0
VERTEX
8
0
10
15.337925
20
71.5899
30
0
0
VERTEX
8
0
10
15.571409375
20
71.5899
30
0
0
VERTEX
8
0
10
15.736509375
20
71.75500000000001
30
0
0
VERTEX
8
0
10
28.026781250000003
20
71.75500000000001
30
0
0
VERTEX
8
0
10
28.055781250000003
20
71.735621875
30
0
42
0.12333821538885169
0
VERTEX
8
0
10
28.410565625
20
71.628
30
0
0
VERTEX
8
0
10
30.009434375
20
71.628
30
0
0
VERTEX
8
0
10
30.083943750000003
20
71.6353375
30
0
42
0.09849124195758484
0
VERTEX
8
0
10
30.364218750000003
20
71.735621875
30
0
0
VERTEX
8
0
10
30.393218750000003
20
71.75500000000001
30
0
0
VERTEX
8
0
10
34.37678125
20
71.75500000000001
30
0
0
VERTEX
8
0
10
34.405781250000004
20
71.735621875
30
0
42
0.12333821538885169
0
VERTEX
8
0
10
34.760565625
20
71.628
30
0
0
VERTEX
8
0
10
36.359434375
20
71.628
30
0
0
VERTEX
8
0
10
36.433943750000005
20
71.6353375
30
0
42
0.09849124195758484
0
VERTEX
8
0
10
36.71421875
20
71.735621875
30
0
0
VERTEX
8
0
10
36.743218750000004
20
71.75500000000001
30
0
0
VERTEX
8
0
10
40.72678125
20
71.75500000000001
30
0
0
VERTEX
8
0
10
40.755781250000005
20
71.735621875
30
0
42
0.12333821538885169
0
VERTEX
8
0
10
41.110565625
20
71.628
30
0
0
VERTEX
8
0
10
42.709434375
20
71.628
30
0
0
VERTEX
8
0
10
42.78394375
20
71.6353375
30
0
42
0.09849124195758484
0
VERTEX
8
0
10
43.06421875
20
71.735621875
30
0
0
VERTEX
8
0
10
43.093218750000005
20
71.75500000000001
30
0
0
VERTEX
8
0
10
47.07678125
20
71.75500000000001
30
0
0
VERTEX
8
0
10
47.10578125
20
71.735621875
30
0
42
0.12333821538885169
0
VERTEX
8
0
10
47.460565625
20
71.628
30
0
0
VERTEX
8
0
10
49.059434375
20
71.628
30
0
0
VERTEX
8
0
10
49.13394375
20
71.6353375
30
0
42
0.09849124195758484
0
VERTEX
8
0
10
49.41421875
20
71.735621875
30
0
0
VERTEX
8
0
10
49.44321875
20
71.75500000000001
30
0
0
VERTEX
8
0
10
53.426781250000005
20
71.75500000000001
30
0
0
VERTEX
8
0
10
53.45578125
20
71.735621875
30
0
42
0.12333821538885169
0
VERTEX
8
0
10
53.810565625
20
71.628
30
0
0
VERTEX
8
0
10
55.409434375000004
20
71.628
30
0
0
VERTEX
8
0
10
55.48394375
20
71.6353375
30
0
42
0.09849124195758484
0
VERTEX
8
0
10
55.764218750000005
20
71.735621875
30
0
0
VERTEX
8
0
10
55.79321875
20
71.75500000000001
30
0
0
VERTEX
8
0
10
59.776781250000006
20
71.75500000000001
30
0
0
VERTEX
8
0
10
59.80578125
20
71.735621875
30
0
42
0.12333821538885169
0
VERTEX
8
0
10
60.160565625000004
20
71.628
30
0
0
VERTEX
8
0
10
61.759434375000005
20
71.628
30
0
0
VERTEX
8
0
10
61.83394375
20
71.6353375
30
0
42
0.07376442108038515
0
VERTEX
8
0
10
62.048190625000004
20
71.700328125
30
0
0
VERTEX
8
0
10
62.114218750000006
20
71.735621875
30
0
0
VERTEX
8
0
10
62.14321875
20
71.75500000000001
30
0
0
VERTEX
8
0
10
83.55697500000001
20
71.75500000000001
30
0
0
VERTEX
8
0
10
86.995
20
68.316975
30
0
0
VERTEX
8
0
10
86.995
20
58.42
30
0
0
VERTEX
8
0
10
86.99812187500001
20
58.3571
30
0
42
0.9207235343935894
0
VERTEX
8
0
10
88.263625
20
58.37825625
30
0
0
VERTEX
8
0
10
88.265
20
58.42
30
0
0
VERTEX
8
0
10
88.265
20
59.055
30
0
0
VERTEX
8
0
10
89.53500000000001
20
59.055
30
0
0
VERTEX
8
0
10
89.53500000000001
20
58.690000000000005
30
0
0
VERTEX
8
0
10
89.538121875
20
58.627100000000006
30
0
42
0.9207235343935894
0
VERTEX
8
0
10
90.80362500000001
20
58.64825625
30
0
0
VERTEX
8
0
10
90.805
20
58.690000000000005
30
0
0
VERTEX
8
0
10
90.805
20
60.690000000000005
30
0
0
VERTEX
8
0
10
90.801878125
20
60.752900000000004
30
0
42
0.9207235343935894
0
VERTEX
8
0
10
89.536375
20
60.73174375
30
0
0
VERTEX
8
0
10
89.53500000000001
20
60.690000000000005
30
0
0
VERTEX
8
0
10
89.53500000000001
20
60.325
30
0
0
VERTEX
8
0
10
88.265
20
60.325
30
0
0
VERTEX
8
0
10
88.265
20
68.58
30
0
0
VERTEX
8
0
10
88.26460625
20
68.5879625
30
0
0
VERTEX
8
0
10
88.26480000000001
20
68.595921875
30
0
42
0.17540035433691983
0
VERTEX
8
0
10
88.10755937500001
20
68.998525
30
0
0
VERTEX
8
0
10
88.0790125
20
69.02901250000001
30
0
0
VERTEX
8
0
10
84.2690125
20
72.83901250000001
30
0
0
VERTEX
8
0
10
84.2631125
20
72.844353125
30
0
0
VERTEX
8
0
10
84.25761250000001
20
72.85013125
30
0
42
0.17539971942470112
0
VERTEX
8
0
10
83.86174375
20
73.02362500000001
30
0
0
VERTEX
8
0
10
83.82000000000001
20
73.025
30
0
0
VERTEX
8
0
10
62.14321875
20
73.025
30
0
0
VERTEX
8
0
10
62.114218750000006
20
73.04437812500001
30
0
0
VERTEX
8
0
10
62.048190625000004
20
73.079671875
30
0
42
0.09849153363520471
0
VERTEX
8
0
10
61.759434375000005
20
73.152
30
0
0
VERTEX
8
0
10
60.160565625000004
20
73.152
30
0
0
VERTEX
8
0
10
60.086056250000006
20
73.14466250000001
30
0
42
0.09849124195758484
0
VERTEX
8
0
10
59.80578125
20
73.04437812500001
30
0
0
VERTEX
8
0
10
59.776781250000006
20
73.025
30
0
0
VERTEX
8
0
10
55.79321875
20
73.025
30
0
0
VERTEX
8
0
10
55.764218750000005
20
73.04437812500001
30
0
42
0.12333821538885169
0
VERTEX
8
0
10
55.409434375000004
20
73.152
30
0
0
VERTEX
8
0
10
53.810565625
20
73.152
30
0
0
VERTEX
8
0
10
53.736056250000004
20
73.14466250000001
30
0
42
0.09849124195758484
0
VERTEX
8
0
10
53.45578125
20
73.04437812500001
30
0
0
VERTEX
8
0
10
53.426781250000005
20
73.025
30
0
0
VERTEX
8
0
10
49.44321875
20
73.025
30
0
0
VERTEX
8
0
10
49.41421875
20
73.04437812500001
30
0
42
0.12333821538885169
0
VERTEX
8
0
10
49.059434375
20
73.152
30
0
0
VERTEX
8
0
10
47.460565625
20
73.152
30
0
0
VERTEX
8
0
10
47.38605625
20
73.14466250000001
30
0
42
0.09849124195758484
0
VERTEX
8
0
10
47.10578125
20
73.04437812500001
30
0
0
VERTEX
8
0
10
47.07678125
20
73.025
30
0
0
VERTEX
8
0
10
43.093218750000005
20
73.025
30
0
0
VERTEX
8
0
10
43.06421875
20
73.04437812500001
30
0
42
0.12333821538885169
0
VERTEX
8
0
10
42.709434375
20
73.152
30
0
0
VERTEX
8
0
10
41.110565625
20
73.152
30
0
0
VERTEX
8
0
10
41.03605625
20
73.14466250000001
30
0
42
0.09849124195758484
0
VERTEX
8
0
10
40.755781250000005
20
73.04437812500001
30
0
0
VERTEX
8
0
10
40.72678125
20
73.025
30
0
0
VERTEX
8
0
10
36.743218750000004
20
73.025
30
0
0
VERTEX
8
0
10
36.71421875
20
73.04437812500001
30
0
42
0.12333821538885169
0
VERTEX
8
0
10
36.359434375
20
73.152
30
0
0
VERTEX
8
0
10
34.760565625
20
73.152
30
0
0
VERTEX
8
0
10
34.68605625
20
73.14466250000001
30
0
42
0.09849124195758484
0
VERTEX
8
0
10
34.405781250000004
20
73.04437812500001
30
0
0
VERTEX
8
0
10
34.37678125
20
73.025
30
0
0
VERTEX
8
0
10
30.393218750000003
20
73.025
30
0
0
VERTEX
8
0
10
30.364218750000003
20
73.04437812500001
30
0
42
0.12333821538885169
0
VERTEX
8
0
10
30.009434375
20
73.152
30
0
0
VERTEX
8
0
10
28.410565625
20
73.152
30
0
0
VERTEX
8
0
10
28.336056250000002
20
73.14466250000001
30
0
42
0.09849124195758484
0
VERTEX
8
0
10
28.055781250000003
20
73.04437812500001
30
0
0
VERTEX
8
0
10
28.026781250000003
20
73.025
30
0
0
VERTEX
8
0
10
15.736509375
20
73.025
30
0
0
VERTEX
8
0
10
15.571409375
20
73.1901
30
0
0
VERTEX
8
0
10
14.908590625
20
73.1901
30
0
0
VERTEX
8
0
10
14.743490625000002
20
73.025
30
0
0
VERTEX
8
0
10
6.740518750000001
20
73.025
30
0
0
VERTEX
8
0
10
6.70275625
20
73.07126562500001
30
0
42
0.967637489632716
0
VERTEX
8
0
10
5.6935625000000005
20
72.30140312500001
30
0
0
VERTEX
8
0
10
5.71889375
20
72.268196875
30
0
0
VERTEX
8
0
10
5.947221875
20
71.988465625
30
0
0
VERTEX
8
0
10
5.952903125000001
20
71.98216875
30
0
0
VERTEX
8
0
10
5.9581125
20
71.97548125
30
0
42
0.20108538292266698
0
VERTEX
8
0
10
6.3974093750000005
20
71.756375
30
0
0
VERTEX
8
0
10
6.439153125000001
20
71.75500000000001
30
0
0
VERTEX
8
0
10
13.706975
20
71.75500000000001
30
0
0
VERTEX
8
0
10
9.7109875
20
67.7590125
30
0
0
VERTEX
8
0
10
9.705646875000001
20
67.7531125
30
0
0
VERTEX
8
0
10
9.69986875
20
67.7476125
30
0
42
0.17539971942470112
0
VERTEX
8
0
10
9.526375
20
67.35174375
30
0
0
VERTEX
8
0
10
9.525
20
67.31
30
0
0
VERTEX
8
0
10
9.525
20
39.370000000000005
30
0
0
VERTEX
8
0
10
9.525393750000001
20
39.3620375
30
0
0
VERTEX
8
0
10
9.5252
20
39.354078125
30
0
42
0.17540035433691983
0
VERTEX
8
0
10
9.682440625
20
38.951475
30
0
0
VERTEX
8
0
10
9.7109875
20
38.9209875
30
0
0
VERTEX
8
0
10
13.5209875
20
35.1109875
30
0
0
VERTEX
8
0
10
13.5268875
20
35.105646875000005
30
0
0
VERTEX
8
0
10
13.5323875
20
35.09986875
30
0
42
0.17539971942470112
0
VERTEX
8
0
10
13.92825625
20
34.926375
30
0
0
VERTEX
8
0
10
13.97
20
34.925000000000004
30
0
0
VERTEX
8
0
10
25.136975
20
34.925000000000004
30
0
0
VERTEX
8
0
10
37.465
20
22.596975
30
0
0
VERTEX
8
0
10
37.465
20
15.24
30
0
0
VERTEX
8
0
10
37.465393750000004
20
15.2320375
30
0
0
VERTEX
8
0
10
37.4652
20
15.224078125
30
0
42
0.17540035433691983
0
VERTEX
8
0
10
37.622440625
20
14.821475000000001
30
0
0
VERTEX
8
0
10
37.6509875
20
14.7909875
30
0
0
VERTEX
8
0
10
42.418
20
10.023975
30
0
0
VERTEX
8
0
10
42.418
20
9.360565625000001
30
0
0
VERTEX
8
0
10
42.425337500000005
20
9.28605625
30
0
42
0.9063472543261978
0
VERTEX
8
0
10
43.942
20
9.360565625000001
30
0
0
VERTEX
8
0
10
43.942
20
10.959434375
30
0
0
VERTEX
8
0
10
43.9346625
20
11.03394375
30
0
42
0.5664926638667324
0
VERTEX
8
0
10
42.72553125
20
11.53478125
30
0
0
VERTEX
8
0
10
42.713290625
20
11.524734375000001
30
0
0
VERTEX
8
0
10
38.735
20
15.503025000000001
30
0
0
VERTEX
8
0
10
38.735
20
22.86
30
0
0
SEQEND
0
POLYLINE
66
1
8
1_copper
10
0.0
20
0.0
30
0.0
70
1
0
VERTEX
8
0
10
77.86134375
20
66.5045375
30
0
42
0.3578057741447831
0
VERTEX
8
0
10
78.51140000000001
20
67.221765625
30
0
0
VERTEX
8
0
10
78.51140000000001
20
68.820634375
30
0
0
VERTEX
8
0
10
78.5040625
20
68.89514375
30
0
42
0.9063472543261978
0
VERTEX
8
0
10
76.98740000000001
20
68.820634375
30
0
0
VERTEX
8
0
10
76.98740000000001
20
67.221765625
30
0
0
VERTEX
8
0
10
76.9947375
20
67.14725625
30
0
42
0.38574240611503685
0
VERTEX
8
0
10
77.786834375
20
66.4972
30
0
0
SEQEND
0
POLYLINE
66
1
8
16_copper
10
0.0
20
0.0
30
0.0
70
1
0
VERTEX
8
0
10
58.49345625
20
64.0122625
30
0
42
0.36193552744711505
0
VERTEX
8
0
10
59.053625000000004
20
64.60125625
30
0
0
VERTEX
8
0
10
59.055
20
64.643
30
0
0
VERTEX
8
0
10
59.055
20
65.77697500000001
30
0
0
VERTEX
8
0
10
59.953025000000004
20
66.675
30
0
0
VERTEX
8
0
10
69.85000000000001
20
66.675
30
0
0
VERTEX
8
0
10
69.8579625
20
66.67539375
30
0
0
VERTEX
8
0
10
69.865921875
20
66.6752
30
0
42
0.17540035433691983
0
VERTEX
8
0
10
70.268525
20
66.832440625
30
0
0
VERTEX
8
0
10
70.2990125
20
66.86098750000001
30
0
0
VERTEX
8
0
10
71.383025
20
67.94500000000001
30
0
0
VERTEX
8
0
10
76.927575
20
67.94500000000001
30
0
0
VERTEX
8
0
10
76.98740000000001
20
67.885175
30
0
0
VERTEX
8
0
10
76.98740000000001
20
67.221765625
30
0
0
VERTEX
8
0
10
76.9947375
20
67.14725625
30
0
42
0.9063472543261978
0
VERTEX
8
0
10
78.51140000000001
20
67.221765625
30
0
0
VERTEX
8
0
10
78.51140000000001
20
68.820634375
30
0
0
VERTEX
8
0
10
78.5040625
20
68.89514375
30
0
42
0.6332429999611061
0
VERTEX
8
0
10
77.184115625
20
69.29554375000001
30
0
0
VERTEX
8
0
10
77.13661875
20
69.23766875
30
0
0
VERTEX
8
0
10
77.121471875
20
69.215
30
0
0
VERTEX
8
0
10
71.12
20
69.215
30
0
0
VERTEX
8
0
10
71.1120375
20
69.21460625
30
0
0
VERTEX
8
0
10
71.104078125
20
69.2148
30
0
42
0.17540035433691983
0
VERTEX
8
0
10
70.701475
20
69.057559375
30
0
0
VERTEX
8
0
10
70.67098750000001
20
69.02901250000001
30
0
0
VERTEX
8
0
10
69.58697500000001
20
67.94500000000001
30
0
0
VERTEX
8
0
10
59.690000000000005
20
67.94500000000001
30
0
0
VERTEX
8
0
10
59.6820375
20
67.94460625
30
0
0
VERTEX
8
0
10
59.674078125
20
67.9448
30
0
42
0.17540035433691983
0
VERTEX
8
0
10
59.271475
20
67.787559375
30
0
0
VERTEX
8
0
10
59.2409875
20
67.7590125
30
0
0
VERTEX
8
0
10
57.9709875
20
66.4890125
30
0
0
VERTEX
8
0
10
57.965646875000004
20
66.4831125
30
0
0
VERTEX
8
0
10
57.959868750000005
20
66.4776125
30
0
42
0.17539971942470112
0
VERTEX
8
0
10
57.786375
20
66.08174375
30
0
0
VERTEX
8
0
10
57.785000000000004
20
66.04
30
0
0
VERTEX
8
0
10
57.785000000000004
20
64.643
30
0
0
VERTEX
8
0
10
57.788121875
20
64.5801
30
0
42
0.3902513642870399
0
VERTEX
8
0
10
58.430615625
20
64.0080875
30
0
0
SEQEND
0
POLYLINE
66
1
8
1_copper
10
0.0
20
0.0
30
0.0
70
1
0
VERTEX
8
0
10
77.86134375
20
60.0021375
30
0
42
0.3578057741447831
0
VERTEX
8
0
10
78.51140000000001
20
60.719365625
30
0
0
VERTEX
8
0
10
78.51140000000001
20
62.318234375
30
0
0
VERTEX
8
0
10
78.5040625
20
62.39274375
30
0
42
0.9063472543261978
0
VERTEX
8
0
10
76.98740000000001
20
62.318234375
30
0
0
VERTEX
8
0
10
76.98740000000001
20
60.719365625
30
0
0
VERTEX
8
0
10
76.9947375
20
60.644856250000004
30
0
42
0.38574240611503685
0
VERTEX
8
0
10
77.786834375
20
59.994800000000005
30
0
0
SEQEND
0
POLYLINE
66
1
8
1_copper
10
0.0
20
0.0
30
0.0
70
1
0
VERTEX
8
0
10
77.86134375
20
52.5345375
30
0
42
0.3578057741447831
0
VERTEX
8
0
10
78.51140000000001
20
53.251765625000004
30
0
0
VERTEX
8
0
10
78.51140000000001
20
54.850634375000006
30
0
0
VERTEX
8
0
10
78.5040625
20
54.925143750000004
30
0
42
0.9063472543261978
0
VERTEX
8
0
10
76.98740000000001
20
54.850634375000006
30
0
0
VERTEX
8
0
10
76.98740000000001
20
53.251765625000004
30
0
0
VERTEX
8
0
10
76.9947375
20
53.17725625
30
0
42
0.38574240611503685
0
VERTEX
8
0
10
77.786834375
20
52.5272
30
0
0
SEQEND
0
POLYLINE
66
1
8
16_copper
10
0.0
20
0.0
30
0.0
70
1
0
VERTEX
8
0
10
78.403778125
20
60.36458125
30
0
42
0.12333821538885169
0
VERTEX
8
0
10
78.51140000000001
20
60.719365625
30
0
0
VERTEX
8
0
10
78.51140000000001
20
62.318234375
30
0
0
VERTEX
8
0
10
78.5040625
20
62.39274375
30
0
42
0.9063472543261978
0
VERTEX
8
0
10
76.98740000000001
20
62.318234375
30
0
0
VERTEX
8
0
10
76.98740000000001
20
60.719365625
30
0
0
VERTEX
8
0
10
76.9947375
20
60.644856250000004
30
0
42
0.09849124195758484
0
VERTEX
8
0
10
77.095021875
20
60.36458125
30
0
0
VERTEX
8
0
10
77.1144
20
60.335581250000004
30
0
0
VERTEX
8
0
10
77.1144
20
55.23441875
30
0
0
VERTEX
8
0
10
77.095021875
20
55.20541875
30
0
42
0.12333821538885169
0
VERTEX
8
0
10
76.98740000000001
20
54.850634375000006
30
0
0
VERTEX
8
0
10
76.98740000000001
20
53.251765625000004
30
0
0
VERTEX
8
0
10
76.9947375
20
53.17725625
30
0
42
0.9063472543261978
0
VERTEX
8
0
10
78.51140000000001
20
53.251765625000004
30
0
0
VERTEX
8
0
10
78.51140000000001
20
54.850634375000006
30
0
0
VERTEX
8
0
10
78.5040625
20
54.925143750000004
30
0
42
0.09849124195758484
0
VERTEX
8
0
10
78.403778125
20
55.20541875
30
0
0
VERTEX
8
0
10
78.3844
20
55.23441875
30
0
0
VERTEX
8
0
10
78.3844
20
60.335581250000004
30
0
0
SEQEND
0
CIRCLE
8
drills_NPTH
10
15.24
20
64.77
30
0
40
1.5875000000000001
0
CIRCLE
8
drills_NPTH
10
66.04
20
49.53
30
0
40
1.5875000000000001
0
CIRCLE
8
drills_NPTH
10
66.04
20
21.59
30
0
40
1.5875000000000001
0
CIRCLE
8
drills_NPTH
10
13.97
20
16.51
30
0
40
1.5875000000000001
0
CIRCLE
8
drills_PTH
10
27.94
20
16.383
30
0
40
0.508
0
CIRCLE
8
drills_PTH
10
30.48
20
16.637
30
0
40
0.508
0
CIRCLE
8
drills_PTH
10
33.02
20
16.383
30
0
40
0.508
0
CIRCLE
8
drills_PTH
10
35.56
20
16.637
30
0
40
0.508
0
CIRCLE
8
drills_PTH
10
38.1
20
16.383
30
0
40
0.508
0
CIRCLE
8
drills_PTH
10
40.64
20
16.637
30
0
40
0.508
0
CIRCLE
8
drills_PTH
10
43.18
20
16.383
30
0
40
0.508
0
CIRCLE
8
drills_PTH
10
45.72
20
16.637
30
0
40
0.508
0
CIRCLE
8
drills_PTH
10
50.800000000000004
20
16.383
30
0
40
0.508
0
CIRCLE
8
drills_PTH
10
53.34
20
16.637
30
0
40
0.508
0
CIRCLE
8
drills_PTH
10
55.88
20
16.383
30
0
40
0.508
0
CIRCLE
8
drills_PTH
10
58.42
20
16.637
30
0
40
0.508
0
CIRCLE
8
drills_PTH
10
60.96
20
16.383
30
0
40
0.508
0
CIRCLE
8
drills_PTH
10
63.5
20
16.637
30
0
40
0.508
0
CIRCLE
8
drills_PTH
10
63.5
20
64.643
30
0
40
0.508
0
CIRCLE
8
drills_PTH
10
60.96
20
64.897
30
0
40
0.508
0
CIRCLE
8
drills_PTH
10
58.42
20
64.643
30
0
40
0.508
0
CIRCLE
8
drills_PTH
10
55.88
20
64.897
30
0
40
0.508
0
CIRCLE
8
drills_PTH
10
53.34
20
64.643
30
0
40
0.508
0
CIRCLE
8
drills_PTH
10
50.800000000000004
20
64.897
30
0
40
0.508
0
CIRCLE
8
drills_PTH
10
48.260000000000005
20
64.643
30
0
40
0.508
0
CIRCLE
8
drills_PTH
10
45.72
20
64.897
30
0
40
0.508
0
CIRCLE
8
drills_PTH
10
41.656
20
64.643
30
0
40
0.508
0
CIRCLE
8
drills_PTH
10
39.116
20
64.897
30
0
40
0.508
0
CIRCLE
8
drills_PTH
10
36.576
20
64.643
30
0
40
0.508
0
CIRCLE
8
drills_PTH
10
34.036
20
64.897
30
0
40
0.508
0
CIRCLE
8
drills_PTH
10
31.496000000000002
20
64.643
30
0
40
0.508
0
CIRCLE
8
drills_PTH
10
28.956000000000003
20
64.897
30
0
40
0.508
0
CIRCLE
8
drills_PTH
10
26.416
20
64.643
30
0
40
0.508
0
CIRCLE
8
drills_PTH
10
23.876
20
64.897
30
0
40
0.508
0
CIRCLE
8
drills_PTH
10
21.336000000000002
20
64.643
30
0
40
0.508
0
CIRCLE
8
drills_PTH
10
18.796
20
64.897
30
0
40
0.508
0
CIRCLE
8
drills_PTH
10
63.640006250000006
20
44.526987500000004
30
0
40
0.508
0
CIRCLE
8
drills_PTH
10
66.18000625
20
44.526987500000004
30
0
40
0.508
0
CIRCLE
8
drills_PTH
10
63.640006250000006
20
41.8599875
30
0
40
0.508
0
CIRCLE
8
drills_PTH
10
66.18000625
20
41.8599875
30
0
40
0.508
0
CIRCLE
8
drills_PTH
10
63.640006250000006
20
39.1929875
30
0
40
0.508
0
CIRCLE
8
drills_PTH
10
66.18000625
20
39.1929875
30
0
40
0.508
0
CIRCLE
8
drills_PTH
10
60.96
20
74.93
30
0
40
0.508
0
CIRCLE
8
drills_PTH
10
60.96
20
72.39
30
0
40
0.508
0
CIRCLE
8
drills_PTH
10
60.96
20
69.85000000000001
30
0
40
0.508
0
CIRCLE
8
drills_PTH
10
54.61
20
74.93
30
0
40
0.508
0
CIRCLE
8
drills_PTH
10
54.61
20
72.39
30
0
40
0.508
0
CIRCLE
8
drills_PTH
10
54.61
20
69.85000000000001
30
0
40
0.508
0
CIRCLE
8
drills_PTH
10
48.260000000000005
20
74.93
30
0
40
0.508
0
CIRCLE
8
drills_PTH
10
48.260000000000005
20
72.39
30
0
40
0.508
0
CIRCLE
8
drills_PTH
10
48.260000000000005
20
69.85000000000001
30
0
40
0.508
0
CIRCLE
8
drills_PTH
10
41.910000000000004
20
74.93
30
0
40
0.508
0
CIRCLE
8
drills_PTH
10
41.910000000000004
20
72.39
30
0
40
0.508
0
CIRCLE
8
drills_PTH
10
41.910000000000004
20
69.85000000000001
30
0
40
0.508
0
CIRCLE
8
drills_PTH
10
35.56
20
74.93
30
0
40
0.508
0
CIRCLE
8
drills_PTH
10
35.56
20
72.39
30
0
40
0.508
0
CIRCLE
8
drills_PTH
10
35.56
20
69.85000000000001
30
0
40
0.508
0
CIRCLE
8
drills_PTH
10
29.21
20
74.93
30
0
40
0.508
0
CIRCLE
8
drills_PTH
10
29.21
20
72.39
30
0
40
0.508
0
CIRCLE
8
drills_PTH
10
29.21
20
69.85000000000001
30
0
40
0.508
0
CIRCLE
8
drills_PTH
10
82.2706
20
61.518800000000006
30
0
40
0.508
0
CIRCLE
8
drills_PTH
10
77.74940000000001
20
61.518800000000006
30
0
40
0.508
0
CIRCLE
8
drills_PTH
10
82.2706
20
68.02120000000001
30
0
40
0.508
0
CIRCLE
8
drills_PTH
10
77.74940000000001
20
68.02120000000001
30
0
40
0.508
0
CIRCLE
8
drills_PTH
10
82.2706
20
54.0512
30
0
40
0.508
0
CIRCLE
8
drills_PTH
10
77.74940000000001
20
54.0512
30
0
40
0.508
0
CIRCLE
8
drills_PTH
10
82.2706
20
47.5488
30
0
40
0.508
0
CIRCLE
8
drills_PTH
10
77.74940000000001
20
47.5488
30
0
40
0.508
0
CIRCLE
8
drills_PTH
10
60.96
20
10.16
30
0
40
0.508
0
CIRCLE
8
drills_PTH
10
58.42
20
10.16
30
0
40
0.508
0
CIRCLE
8
drills_PTH
10
55.88
20
10.16
30
0
40
0.508
0
CIRCLE
8
drills_PTH
10
53.34
20
10.16
30
0
40
0.508
0
CIRCLE
8
drills_PTH
10
50.800000000000004
20
10.16
30
0
40
0.508
0
CIRCLE
8
drills_PTH
10
48.260000000000005
20
10.16
30
0
40
0.508
0
CIRCLE
8
drills_PTH
10
45.72
20
10.16
30
0
40
0.508
0
CIRCLE
8
drills_PTH
10
43.18
20
10.16
30
0
40
0.508
0
CIRCLE
8
drills_PTH
10
6.210825000000001
20
72.66973125
30
0
40
0.45
0
CIRCLE
8
drills_PTH
10
6.489171875
20
74.650265625
30
0
40
0.45
0
CIRCLE
8
drills_PTH
10
90.17
20
58.690000000000005
30
0
40
0.45
0
CIRCLE
8
drills_PTH
10
90.17
20
60.690000000000005
30
0
40
0.45
0
CIRCLE
8
drills_PTH
10
15.24
20
74.93
30
0
40
0.40640000000000004
0
CIRCLE
8
drills_PTH
10
15.24
20
72.39
30
0
40
0.40640000000000004
0
CIRCLE
8
drills_PTH
10
87.63000000000001
20
62.230000000000004
30
0
40
0.35000000000000003
0
CIRCLE
8
drills_PTH
10
85.09
20
62.230000000000004
30
0
40
0.35000000000000003
0
CIRCLE
8
drills_PTH
10
85.09
20
58.42
30
0
40
0.35000000000000003
0
CIRCLE
8
drills_PTH
10
87.63000000000001
20
58.42
30
0
40
0.35000000000000003
0
ENDSEC
0
EOF